<?xml version="1.0" standalone="yes"?>

<svg version="1.1" viewBox="0.0 0.0 933.8188976377953 390.87926509186354" fill="none" stroke="none" stroke-linecap="square" stroke-miterlimit="10" xmlns="http://www.w3.org/2000/svg" xmlns:xlink="http://www.w3.org/1999/xlink"><clipPath id="p.0"><path d="m0 0l933.8189 0l0 390.87927l-933.8189 0l0 -390.87927z" clip-rule="nonzero"></path></clipPath><g clip-path="url(#p.0)"><path fill="#000000" fill-opacity="0.0" d="m0 0l933.8189 0l0 390.87927l-933.8189 0z" fill-rule="evenodd"></path><path fill="#000000" fill-opacity="0.0" d="m402.7454 6.3543305l183.3071 86.58267" fill-rule="evenodd"></path><path stroke="#000000" stroke-width="3.0" stroke-linejoin="round" stroke-linecap="butt" d="m402.7454 6.3543305l167.03134 78.895035" fill-rule="evenodd"></path><path fill="#000000" stroke="#000000" stroke-width="3.0" stroke-linecap="butt" d="m567.6604 89.729904l14.426514 1.3340073l-10.193848 -10.295074z" fill-rule="evenodd"></path><path fill="#cfe2f3" d="m586.0525 92.937004l0 0c0 -17.977516 14.869812 -32.551178 33.212585 -32.551178l0 0c8.808533 0 17.256287 3.4294891 23.484863 9.534019c6.2285767 6.1045303 9.727722 14.384056 9.727722 23.017159l0 0c0 17.977524 -14.869751 32.551186 -33.212585 32.551186l0 0c-18.342773 0 -33.212585 -14.573662 -33.212585 -32.551186z" fill-rule="evenodd"></path><path stroke="#000000" stroke-width="1.0" stroke-linejoin="round" stroke-linecap="butt" d="m586.0525 92.937004l0 0c0 -17.977516 14.869812 -32.551178 33.212585 -32.551178l0 0c8.808533 0 17.256287 3.4294891 23.484863 9.534019c6.2285767 6.1045303 9.727722 14.384056 9.727722 23.017159l0 0c0 17.977524 -14.869751 32.551186 -33.212585 32.551186l0 0c-18.342773 0 -33.212585 -14.573662 -33.212585 -32.551186z" fill-rule="evenodd"></path><path fill="#000000" d="m613.93835 99.85701l0 -1.25q-0.9375 1.46875 -2.75 1.46875q-1.171875 0 -2.171875 -0.640625q-0.984375 -0.65625 -1.53125 -1.8125q-0.53125 -1.171875 -0.53125 -2.6875q0 -1.46875 0.484375 -2.671875q0.5 -1.203125 1.46875 -1.84375q0.984375 -0.640625 2.203125 -0.640625q0.890625 0 1.578125 0.375q0.703125 0.375 1.140625 0.984375l0 -4.875l1.65625 0l0 13.59375l-1.546875 0zm-5.28125 -4.921875q0 1.890625 0.796875 2.828125q0.8125 0.9375 1.890625 0.9375q1.09375 0 1.859375 -0.890625q0.765625 -0.890625 0.765625 -2.734375q0 -2.015625 -0.78125 -2.953125q-0.78125 -0.953125 -1.921875 -0.953125q-1.109375 0 -1.859375 0.90625q-0.75 0.90625 -0.75 2.859375zm8.641357 0q0 -2.734375 1.53125 -4.0625q1.265625 -1.09375 3.09375 -1.09375q2.03125 0 3.3125 1.34375q1.296875 1.328125 1.296875 3.671875q0 1.90625 -0.578125 3.0q-0.5625 1.078125 -1.65625 1.6875q-1.078125 0.59375 -2.375 0.59375q-2.0625 0 -3.34375 -1.328125q-1.28125 -1.328125 -1.28125 -3.8125zm1.71875 0q0 1.890625 0.828125 2.828125q0.828125 0.9375 2.078125 0.9375q1.25 0 2.0625 -0.9375q0.828125 -0.953125 0.828125 -2.890625q0 -1.828125 -0.828125 -2.765625q-0.828125 -0.9375 -2.0625 -0.9375q-1.25 0 -2.078125 0.9375q-0.828125 0.9375 -0.828125 2.828125zm12.938171 3.421875l0.234375 1.484375q-0.703125 0.140625 -1.265625 0.140625q-0.90625 0 -1.40625 -0.28125q-0.5 -0.296875 -0.703125 -0.75q-0.203125 -0.46875 -0.203125 -1.984375l0 -5.65625l-1.234375 0l0 -1.3125l1.234375 0l0 -2.4375l1.65625 -1.0l0 3.4375l1.6875 0l0 1.3125l-1.6875 0l0 5.75q0 0.71875 0.078125 0.921875q0.09375 0.203125 0.296875 0.328125q0.203125 0.125 0.578125 0.125q0.265625 0 0.734375 -0.078125z" fill-rule="nonzero"></path><path fill="#000000" fill-opacity="0.0" d="m517.3412 16.971128l76.91339 0l0 48.72441l-76.91339 0z" fill-rule="evenodd"></path><path fill="#000000" d="m539.8568 44.269257l5.84375 8.671875q1.453125 2.15625 2.0625 2.625q0.625 0.453125 1.46875 0.546875l0 0.578125l-10.328125 0l0 -0.578125q1.234375 -0.09375 1.59375 -0.375q0.359375 -0.28125 0.359375 -0.6875q0 -0.28125 -0.109375 -0.5q-0.21875 -0.46875 -1.09375 -1.75l-3.09375 -4.578125l-3.234375 3.953125q-1.453125 1.796875 -1.453125 2.4375q0 0.453125 0.375 0.84375q0.375 0.390625 1.109375 0.5625q0.328125 0.09375 1.34375 0.09375l0 0.578125l-8.140625 0l0 -0.578125q1.390625 -0.203125 2.1875 -0.75q1.046875 -0.71875 2.921875 -3.0l4.203125 -5.125l-5.390625 -7.921875q-1.328125 -1.953125 -1.515625 -2.171875q-0.421875 -0.515625 -0.828125 -0.734375q-0.40625 -0.21875 -1.125 -0.328125l0 -0.578125l10.515625 0l0 0.578125l-0.53125 0q-0.90625 0 -1.265625 0.296875q-0.359375 0.28125 -0.359375 0.71875q0 0.34375 0.109375 0.59375l1.078125 1.625l2.625 4.0l2.234375 -2.734375q1.71875 -2.109375 1.71875 -2.953125q0 -0.421875 -0.25 -0.78125q-0.234375 -0.359375 -0.6875 -0.5625q-0.453125 -0.203125 -1.40625 -0.203125l0 -0.578125l7.796875 0l0 0.578125q-0.921875 0.015625 -1.484375 0.234375q-0.5625 0.203125 -1.203125 0.78125q-0.40625 0.375 -2.03125 2.328125l-4.015625 4.84375z" fill-rule="nonzero"></path><path fill="#000000" fill-opacity="0.0" d="m402.7454 125.48819l76.91339 0l0 48.72441l-76.91339 0z" fill-rule="evenodd"></path><path fill="#000000" d="m443.46414 144.02069l0 0.578125q-0.59375 0.046875 -1.0 0.328125q-0.40625 0.28125 -0.71875 0.859375q-0.09375 0.1875 -0.984375 2.421875l-6.640625 17.484375l-0.609375 0l-5.25 -13.65625l-5.78125 13.65625l-0.578125 0l-6.96875 -17.296875q-1.0625 -2.609375 -1.484375 -3.15625q-0.421875 -0.546875 -1.421875 -0.640625l0 -0.578125l9.1875 0l0 0.578125q-1.109375 0.03125 -1.484375 0.34375q-0.359375 0.296875 -0.359375 0.75q0 0.59375 0.765625 2.515625l4.15625 10.28125l3.328125 -8.03125l-0.875 -2.25q-0.71875 -1.84375 -1.109375 -2.453125q-0.390625 -0.625 -0.90625 -0.890625q-0.5 -0.265625 -1.484375 -0.265625l0 -0.578125l10.265625 0l0 0.578125q-1.078125 0.015625 -1.546875 0.171875q-0.328125 0.109375 -0.515625 0.375q-0.1875 0.25 -0.1875 0.578125q0 0.359375 0.703125 2.203125l3.859375 10.03125l3.453125 -9.078125q0.546875 -1.40625 0.671875 -1.921875q0.125 -0.515625 0.125 -0.953125q0 -0.640625 -0.4375 -1.0q-0.4375 -0.375 -1.671875 -0.40625l0 -0.578125l5.5 0z" fill-rule="nonzero"></path><path fill="#cfe2f3" d="m755.96063 92.937004l0 0c0 -17.977516 14.869812 -32.551178 33.212585 -32.551178l0 0c8.808533 0 17.256287 3.4294891 23.484863 9.534019c6.2285767 6.1045303 9.727722 14.384056 9.727722 23.017159l0 0c0 17.977524 -14.869751 32.551186 -33.212585 32.551186l0 0c-18.342773 0 -33.212585 -14.573662 -33.212585 -32.551186z" fill-rule="evenodd"></path><path stroke="#000000" stroke-width="1.0" stroke-linejoin="round" stroke-linecap="butt" d="m755.96063 92.937004l0 0c0 -17.977516 14.869812 -32.551178 33.212585 -32.551178l0 0c8.808533 0 17.256287 3.4294891 23.484863 9.534019c6.2285767 6.1045303 9.727722 14.384056 9.727722 23.017159l0 0c0 17.977524 -14.869751 32.551186 -33.212585 32.551186l0 0c-18.342773 0 -33.212585 -14.573662 -33.212585 -32.551186z" fill-rule="evenodd"></path><path fill="#000000" d="m788.4914 97.653885l0 -3.71875l-3.703125 0l0 -1.5625l3.703125 0l0 -3.703125l1.578125 0l0 3.703125l3.6875 0l0 1.5625l-3.6875 0l0 3.71875l-1.578125 0z" fill-rule="nonzero"></path><path fill="#000000" fill-opacity="0.0" d="m652.47766 92.937004l103.49609 0" fill-rule="evenodd"></path><path stroke="#000000" stroke-width="3.0" stroke-linejoin="round" stroke-linecap="butt" d="m652.47766 92.937004l85.49609 0" fill-rule="evenodd"></path><path fill="#000000" stroke="#000000" stroke-width="3.0" stroke-linecap="butt" d="m737.97375 97.892204l13.614319 -4.9552l-13.614319 -4.9551926z" fill-rule="evenodd"></path><path fill="#000000" fill-opacity="0.0" d="m822.3858 92.937004l111.433105 0" fill-rule="evenodd"></path><path stroke="#000000" stroke-width="3.0" stroke-linejoin="round" stroke-linecap="butt" d="m822.3858 92.937004l93.433105 0" fill-rule="evenodd"></path><path fill="#000000" stroke="#000000" stroke-width="3.0" stroke-linecap="butt" d="m915.8189 97.892204l13.614258 -4.9552l-13.614258 -4.9551926z" fill-rule="evenodd"></path><path fill="#000000" fill-opacity="0.0" d="m675.37006 263.48557l90.33075 -147.52756" fill-rule="evenodd"></path><path stroke="#000000" stroke-width="3.0" stroke-linejoin="round" stroke-linecap="butt" d="m675.37006 263.48557l80.9314 -132.17659" fill-rule="evenodd"></path><path fill="#000000" stroke="#000000" stroke-width="3.0" stroke-linecap="butt" d="m760.5274 133.8965l2.8832397 -14.198227l-11.335144 9.023163z" fill-rule="evenodd"></path><path fill="#000000" fill-opacity="0.0" d="m413.5433 263.48557l257.0709 0" fill-rule="evenodd"></path><path stroke="#000000" stroke-width="3.0" stroke-linejoin="round" stroke-linecap="butt" d="m413.5433 263.48557l257.0709 0" fill-rule="evenodd"></path><path fill="#000000" d="m670.6142 263.48557l0 0c0 -1.6437988 1.0646362 -2.9763794 2.3779297 -2.9763794l0 0c0.63067627 0 1.2355347 0.31356812 1.6814575 0.87176514c0.4459839 0.5581665 0.69647217 1.3152161 0.69647217 2.1046143l0 0c0 1.6437988 -1.0646362 2.9763794 -2.3779297 2.9763794l0 0c-1.3132935 0 -2.3779297 -1.3325806 -2.3779297 -2.9763794z" fill-rule="evenodd"></path><path stroke="#000000" stroke-width="1.0" stroke-linejoin="round" stroke-linecap="butt" d="m670.6142 263.48557l0 0c0 -1.6437988 1.0646362 -2.9763794 2.3779297 -2.9763794l0 0c0.63067627 0 1.2355347 0.31356812 1.6814575 0.87176514c0.4459839 0.5581665 0.69647217 1.3152161 0.69647217 2.1046143l0 0c0 1.6437988 -1.0646362 2.9763794 -2.3779297 2.9763794l0 0c-1.3132935 0 -2.3779297 -1.3325806 -2.3779297 -2.9763794z" fill-rule="evenodd"></path><path fill="#000000" fill-opacity="0.0" d="m402.17395 182.47385l193.60626 -66.51968" fill-rule="evenodd"></path><path stroke="#000000" stroke-width="3.0" stroke-linejoin="round" stroke-linecap="butt" d="m402.17392 182.47386l176.58304 -60.670815" fill-rule="evenodd"></path><path fill="#000000" stroke="#000000" stroke-width="3.0" stroke-linecap="butt" d="m580.3671 126.48936l11.265381 -9.110107l-14.485657 -0.26250458z" fill-rule="evenodd"></path><path fill="#000000" fill-opacity="0.0" d="m493.19946 211.39896l76.91339 0l0 48.724396l-76.91339 0z" fill-rule="evenodd"></path><path fill="#000000" d="m516.43384 239.88458q3.015625 0.703125 4.234375 1.703125q1.75 1.421875 1.75 3.6875q0 2.390625 -1.921875 3.953125q-2.359375 1.890625 -6.859375 1.890625l-10.765625 0l0 -0.578125q1.46875 0 1.984375 -0.265625q0.53125 -0.28125 0.734375 -0.71875q0.21875 -0.4375 0.21875 -2.15625l0 -13.75q0 -1.71875 -0.21875 -2.15625q-0.203125 -0.453125 -0.734375 -0.71875q-0.53125 -0.265625 -1.984375 -0.265625l0 -0.578125l10.15625 0q3.640625 0 5.15625 0.65625q1.515625 0.640625 2.390625 1.9375q0.875 1.28125 0.875 2.734375q0 1.53125 -1.109375 2.734375q-1.109375 1.1875 -3.90625 1.890625zm-5.6875 -0.421875q2.21875 0 3.265625 -0.5q1.0625 -0.5 1.625 -1.40625q0.5625 -0.90625 0.5625 -2.3125q0 -1.40625 -0.5625 -2.296875q-0.546875 -0.90625 -1.578125 -1.375q-1.03125 -0.46875 -3.3125 -0.453125l0 8.34375zm0 1.21875l0 6.796875l-0.015625 0.78125q0 0.84375 0.421875 1.28125q0.4375 0.421875 1.28125 0.421875q1.25 0 2.296875 -0.546875q1.0625 -0.5625 1.625 -1.609375q0.5625 -1.0625 0.5625 -2.359375q0 -1.484375 -0.6875 -2.65625q-0.6875 -1.1875 -1.890625 -1.65625q-1.203125 -0.46875 -3.59375 -0.453125z" fill-rule="nonzero"></path><path fill="#000000" fill-opacity="0.0" d="m839.6457 32.74803l76.91339 0l0 48.72441l-76.91339 0z" fill-rule="evenodd"></path><path fill="#000000" d="m871.3957 51.280533l0 0.578125q-1.046875 0.140625 -1.609375 0.609375q-0.78125 0.65625 -2.46875 3.578125l-4.59375 7.671875l0 5.125q0 1.640625 0.171875 2.046875q0.171875 0.390625 0.671875 0.703125q0.515625 0.296875 1.359375 0.296875l1.1875 0l0 0.578125l-11.890625 0l0 -0.578125l1.109375 0q0.9375 0 1.484375 -0.328125q0.40625 -0.21875 0.640625 -0.75q0.171875 -0.375 0.171875 -1.96875l0 -4.25l-4.984375 -9.078125q-1.484375 -2.6875 -2.09375 -3.15625q-0.609375 -0.484375 -1.625 -0.5l0 -0.578125l10.15625 0l0 0.578125l-0.453125 0q-0.921875 0 -1.296875 0.265625q-0.359375 0.265625 -0.359375 0.5625q0 0.5625 1.25 2.828125l3.828125 7.015625l3.8125 -6.390625q1.421875 -2.34375 1.421875 -3.109375q0 -0.421875 -0.40625 -0.703125q-0.53125 -0.390625 -1.953125 -0.46875l0 -0.578125l6.46875 0z" fill-rule="nonzero"></path><path fill="#000000" fill-opacity="0.0" d="m932.9554 103.83727l-110.33069 0.56692505" fill-rule="evenodd"></path><path stroke="#ff0000" stroke-width="3.0" stroke-linejoin="round" stroke-linecap="butt" d="m932.9554 103.83727l-92.33093 0.47444153" fill-rule="evenodd"></path><path fill="#ff0000" stroke="#ff0000" stroke-width="3.0" stroke-linecap="butt" d="m840.599 99.356575l-13.588684 5.0250854l13.639587 4.8851776z" fill-rule="evenodd"></path><path fill="#000000" fill-opacity="0.0" d="m749.94226 103.02887l-99.433044 0" fill-rule="evenodd"></path><path stroke="#ff0000" stroke-width="3.0" stroke-linejoin="round" stroke-linecap="butt" d="m749.94226 103.02887l-81.433044 0" fill-rule="evenodd"></path><path fill="#ff0000" stroke="#ff0000" stroke-width="3.0" stroke-linecap="butt" d="m668.50916 98.07368l-13.614258 4.9551926l13.614258 4.9552z" fill-rule="evenodd"></path><path fill="#000000" fill-opacity="0.0" d="m584.49603 103.156166l-193.63776 -87.27559" fill-rule="evenodd"></path><path stroke="#ff0000" stroke-width="3.0" stroke-linejoin="round" stroke-linecap="butt" d="m584.49603 103.156166l-177.22757 -79.87926" fill-rule="evenodd"></path><path fill="#ff0000" stroke="#ff0000" stroke-width="3.0" stroke-linecap="butt" d="m409.3046 18.759367l-14.447968 -1.0766716l10.375702 10.111752z" fill-rule="evenodd"></path><path fill="#000000" fill-opacity="0.0" d="m449.22046 57.96982l76.91339 0l0 48.72441l-76.91339 0z" fill-rule="evenodd"></path><path fill="#ff0000" d="m485.22046 75.31482q4.5 4.5 4.5 10.875q0 6.375 -4.5 10.875q-4.5 4.5 -10.875 4.5q-6.375 0 -10.875 -4.5q-4.5 -4.5 -4.5 -10.875q0 -6.375 4.5 -10.875q4.5 -4.5 10.875 -4.5q6.375 0 10.875 4.5zm-0.875 20.875q4.125 -4.125 4.125 -10.0q0 -5.875 -4.125 -10.0q-4.125 -4.125 -10.0 -4.125q-5.875 0 -10.0 4.125q-4.125 4.125 -4.125 10.0q0 5.875 4.125 10.0q4.125 4.125 10.0 4.125q5.875 0 10.0 -4.125zm-8.125 -20.875l0 21.375l-2.875 0l0 -16.75l-4.875 0l0 -2.0q4.625 0.25 5.875 -2.625l1.875 0z" fill-rule="nonzero"></path><path fill="#000000" fill-opacity="0.0" d="m691.37006 279.25723l-275.43304 0.6614075" fill-rule="evenodd"></path><path stroke="#ff0000" stroke-width="3.0" stroke-linejoin="round" stroke-linecap="butt" d="m691.37006 279.25723l-257.43307 0.61816406" fill-rule="evenodd"></path><path fill="#ff0000" stroke="#ff0000" stroke-width="3.0" stroke-linecap="butt" d="m433.92505 274.92023l-13.602356 4.9878845l13.62616 4.9224854z" fill-rule="evenodd"></path><path fill="#000000" fill-opacity="0.0" d="m692.07086 280.19684l97.102356 -154.70865" fill-rule="evenodd"></path><path stroke="#ff0000" stroke-width="3.0" stroke-linejoin="round" stroke-linecap="butt" d="m692.07086 280.19684l97.102356 -154.70865" fill-rule="evenodd"></path><path fill="#000000" fill-opacity="0.0" d="m518.8622 153.84908l76.91339 0l0 48.72441l-76.91339 0z" fill-rule="evenodd"></path><path fill="#ff0000" d="m550.4872 177.19408q0 2.5 -1.75 4.5q-1.5 1.375 -3.875 3.125q-4.25 3.125 -4.875 5.0l11.125 0l0 2.75l-14.375 0l0 -2.5q1.25 -3.0 4.5 -5.625q3.5 -2.75 4.875 -4.125q1.375 -1.25 1.375 -3.125q0 -1.625 -1.125 -2.75q-0.75 -0.75 -2.5 -0.75q-1.75 0 -2.5 0.75q-1.125 1.125 -0.875 3.125l-3.125 0q-0.125 -3.0 1.625 -4.75q1.875 -1.875 4.875 -1.875q3.0 0 4.75 1.75q1.875 1.875 1.875 4.5zm4.375 -6.0q4.5 4.5 4.5 10.875q0 6.375 -4.5 10.875q-4.5 4.5 -10.875 4.5q-6.375 0 -10.875 -4.5q-4.5 -4.5 -4.5 -10.875q0 -6.375 4.5 -10.875q4.5 -4.5 10.875 -4.5q6.375 0 10.875 4.5zm-0.875 20.875q4.125 -4.125 4.125 -10.0q0 -5.875 -4.125 -10.0q-4.125 -4.125 -10.0 -4.125q-5.875 0 -10.0 4.125q-4.125 4.125 -4.125 10.0q0 5.875 4.125 10.0q4.125 4.125 10.0 4.125q5.875 0 10.0 -4.125z" fill-rule="nonzero"></path><path fill="#000000" fill-opacity="0.0" d="m655.91077 31.845144l122.078735 0l0 48.72441l-122.078735 0z" fill-rule="evenodd"></path><path fill="#000000" d="m678.4264 59.143272l5.84375 8.671875q1.453125 2.15625 2.0625 2.625q0.625 0.453125 1.46875 0.546875l0 0.578125l-10.328125 0l0 -0.578125q1.234375 -0.09375 1.59375 -0.375q0.359375 -0.28125 0.359375 -0.6875q0 -0.28125 -0.109375 -0.5q-0.21875 -0.46875 -1.09375 -1.75l-3.09375 -4.578125l-3.234375 3.953125q-1.453125 1.796875 -1.453125 2.4375q0 0.453125 0.375 0.84375q0.375 0.390625 1.109375 0.5625q0.328125 0.09375 1.34375 0.09375l0 0.578125l-8.140625 0l0 -0.578125q1.390625 -0.203125 2.1875 -0.75q1.046875 -0.71875 2.921875 -3.0l4.203125 -5.125l-5.390625 -7.921875q-1.328125 -1.953125 -1.515625 -2.171875q-0.421875 -0.515625 -0.828125 -0.734375q-0.40625 -0.21875 -1.125 -0.328125l0 -0.578125l10.515625 0l0 0.578125l-0.53125 0q-0.90625 0 -1.265625 0.296875q-0.359375 0.28125 -0.359375 0.71875q0 0.34375 0.109375 0.59375l1.078125 1.625l2.625 4.0l2.234375 -2.734375q1.71875 -2.109375 1.71875 -2.953125q0 -0.421875 -0.25 -0.78125q-0.234375 -0.359375 -0.6875 -0.5625q-0.453125 -0.203125 -1.40625 -0.203125l0 -0.578125l7.796875 0l0 0.578125q-0.921875 0.015625 -1.484375 0.234375q-0.5625 0.203125 -1.203125 0.78125q-0.40625 0.375 -2.03125 2.328125l-4.015625 4.84375z" fill-rule="nonzero"></path><path fill="#000000" d="m699.14514 56.815147q1.0625 1.078125 1.0625 2.59375q0 1.515625 -0.9375 2.46875q-1.078125 1.0625 -2.59375 1.0625q-1.515625 0 -2.46875 -0.9375q-1.0625 -1.078125 -1.0625 -2.59375q0 -1.515625 0.9375 -2.46875q1.078125 -1.0625 2.59375 -1.0625q1.515625 0 2.46875 0.9375z" fill-rule="nonzero"></path><path fill="#000000" d="m735.7389 50.377647l0 0.578125q-0.59375 0.046875 -1.0 0.328125q-0.40625 0.28125 -0.71875 0.859375q-0.09375 0.1875 -0.984375 2.421875l-6.640625 17.484375l-0.609375 0l-5.25 -13.65625l-5.78125 13.65625l-0.578125 0l-6.96875 -17.296875q-1.0625 -2.609375 -1.484375 -3.15625q-0.421875 -0.546875 -1.421875 -0.640625l0 -0.578125l9.1875 0l0 0.578125q-1.109375 0.03125 -1.484375 0.34375q-0.359375 0.296875 -0.359375 0.75q0 0.59375 0.765625 2.515625l4.15625 10.28125l3.328125 -8.03125l-0.875 -2.25q-0.71875 -1.84375 -1.109375 -2.453125q-0.390625 -0.625 -0.90625 -0.890625q-0.5 -0.265625 -1.484375 -0.265625l0 -0.578125l10.265625 0l0 0.578125q-1.078125 0.015625 -1.546875 0.171875q-0.328125 0.109375 -0.515625 0.375q-0.1875 0.25 -0.1875 0.578125q0 0.359375 0.703125 2.203125l3.859375 10.03125l3.453125 -9.078125q0.546875 -1.40625 0.671875 -1.921875q0.125 -0.515625 0.125 -0.953125q0 -0.640625 -0.4375 -1.0q-0.4375 -0.375 -1.671875 -0.40625l0 -0.578125l5.5 0z" fill-rule="nonzero"></path><path fill="#000000" fill-opacity="0.0" d="m619.2651 125.48819l-217.10236 77.5748" fill-rule="evenodd"></path><path stroke="#ff0000" stroke-width="3.0" stroke-linejoin="round" stroke-linecap="butt" d="m619.2651 125.48819l-200.15192 71.51811" fill-rule="evenodd"></path><path fill="#ff0000" stroke="#ff0000" stroke-width="3.0" stroke-linecap="butt" d="m417.4458 192.34003l-11.153107 9.247253l14.487793 0.08526611z" fill-rule="evenodd"></path><path fill="#000000" fill-opacity="0.0" d="m845.28345 92.937004l58.80316 0l0 87.2756l-58.80316 0z" fill-rule="evenodd"></path><path fill="#ff0000" d="m868.7991 118.091675q0.1875 -1.765625 0.1875 -2.90625q0 -2.8125 -1.484375 -4.34375q-1.46875 -1.546875 -3.921875 -1.546875q-1.65625 0 -2.75 0.625q-1.09375 0.625 -1.953125 1.859375l-0.71875 0q1.203125 -2.46875 2.59375 -3.578125q1.390625 -1.125 3.359375 -1.125q1.40625 0 2.734375 0.765625q1.34375 0.765625 2.15625 2.46875q0.828125 1.703125 0.828125 4.609375q0 5.53125 -2.40625 9.9375q-2.703125 4.921875 -6.84375 4.921875q-2.4375 0 -3.875 -1.40625q-1.421875 -1.40625 -1.421875 -3.828125q0 -1.828125 0.71875 -3.578125q0.734375 -1.765625 1.84375 -2.984375q1.109375 -1.21875 2.46875 -1.9375q1.765625 -0.9375 3.59375 -0.9375q1.28125 0 2.3125 0.5q1.046875 0.484375 1.71875 1.1875q0.421875 0.4375 0.859375 1.296875zm-0.265625 1.390625q-0.609375 -1.734375 -1.828125 -2.625q-1.203125 -0.890625 -2.65625 -0.890625q-1.40625 0 -2.765625 0.96875q-1.359375 0.96875 -2.359375 3.40625q-1.0 2.421875 -1.0 4.84375q0 1.78125 0.859375 2.75q0.859375 0.953125 2.1875 0.953125q1.921875 0 3.921875 -2.03125q2.546875 -2.59375 3.640625 -7.375z" fill-rule="nonzero"></path><path fill="#ff0000" d="m884.7678 129.2948l-15.703125 0l0.21875 -0.578125q1.25 -0.03125 1.671875 -0.203125q0.65625 -0.28125 0.96875 -0.734375q0.484375 -0.71875 1.03125 -2.59375l3.734375 -12.890625q0.46875 -1.59375 0.46875 -2.34375q0 -0.59375 -0.4375 -0.921875q-0.421875 -0.328125 -1.609375 -0.328125q-0.265625 0 -0.421875 -0.015625l0.1875 -0.578125l8.640625 0l-0.125 0.578125q-1.453125 0 -2.0625 0.28125q-0.609375 0.28125 -1.015625 0.921875q-0.28125 0.421875 -0.921875 2.625l-3.671875 12.671875q-0.421875 1.4375 -0.421875 2.0q0 0.375 0.421875 0.71875q0.265625 0.234375 1.203125 0.234375l2.046875 0q2.234375 0 3.546875 -0.5625q0.96875 -0.421875 1.78125 -1.265625q0.4375 -0.46875 1.546875 -2.328125l0.40625 -0.703125l0.578125 0l-2.0625 6.015625z" fill-rule="nonzero"></path><path fill="#ff0000" d="m868.7991 156.09167q0.1875 -1.765625 0.1875 -2.90625q0 -2.8125 -1.484375 -4.34375q-1.46875 -1.546875 -3.921875 -1.546875q-1.65625 0 -2.75 0.625q-1.09375 0.625 -1.953125 1.859375l-0.71875 0q1.203125 -2.46875 2.59375 -3.578125q1.390625 -1.125 3.359375 -1.125q1.40625 0 2.734375 0.765625q1.34375 0.765625 2.15625 2.46875q0.828125 1.703125 0.828125 4.609375q0 5.53125 -2.40625 9.9375q-2.703125 4.921875 -6.84375 4.921875q-2.4375 0 -3.875 -1.40625q-1.421875 -1.40625 -1.421875 -3.828125q0 -1.828125 0.71875 -3.578125q0.734375 -1.765625 1.84375 -2.984375q1.109375 -1.21875 2.46875 -1.9375q1.765625 -0.9375 3.59375 -0.9375q1.28125 0 2.3125 0.5q1.046875 0.484375 1.71875 1.1875q0.421875 0.4375 0.859375 1.296875zm-0.265625 1.390625q-0.609375 -1.734375 -1.828125 -2.625q-1.203125 -0.890625 -2.65625 -0.890625q-1.40625 0 -2.765625 0.96875q-1.359375 0.96875 -2.359375 3.40625q-1.0 2.421875 -1.0 4.84375q0 1.78125 0.859375 2.75q0.859375 0.953125 2.1875 0.953125q1.921875 0 3.921875 -2.03125q2.546875 -2.59375 3.640625 -7.375z" fill-rule="nonzero"></path><path fill="#ff0000" d="m892.84595 146.1073l0 0.578125q-1.046875 0.140625 -1.609375 0.609375q-0.78125 0.65625 -2.46875 3.578125l-4.59375 7.671875l0 5.125q0 1.640625 0.171875 2.046875q0.171875 0.390625 0.671875 0.703125q0.515625 0.296875 1.359375 0.296875l1.1875 0l0 0.578125l-11.890625 0l0 -0.578125l1.109375 0q0.9375 0 1.484375 -0.328125q0.40625 -0.21875 0.640625 -0.75q0.171875 -0.375 0.171875 -1.96875l0 -4.25l-4.984375 -9.078125q-1.484375 -2.6875 -2.09375 -3.15625q-0.609375 -0.484375 -1.625 -0.5l0 -0.578125l10.15625 0l0 0.578125l-0.453125 0q-0.921875 0 -1.296875 0.265625q-0.359375 0.265625 -0.359375 0.5625q0 0.5625 1.25 2.828125l3.828125 7.015625l3.8125 -6.390625q1.421875 -2.34375 1.421875 -3.109375q0 -0.421875 -0.40625 -0.703125q-0.53125 -0.390625 -1.953125 -0.46875l0 -0.578125l6.46875 0z" fill-rule="nonzero"></path><path fill="#000000" fill-opacity="0.0" d="m845.28345 136.5748l58.80316 0" fill-rule="evenodd"></path><path stroke="#ff0000" stroke-width="1.0" stroke-linejoin="round" stroke-linecap="butt" d="m845.28345 136.5748l58.80316 0" fill-rule="evenodd"></path><path fill="#000000" fill-opacity="0.0" d="m664.1522 92.937004l58.80316 0l0 87.2756l-58.80316 0z" fill-rule="evenodd"></path><path fill="#ff0000" d="m687.66785 118.091675q0.1875 -1.765625 0.1875 -2.90625q0 -2.8125 -1.484375 -4.34375q-1.46875 -1.546875 -3.921875 -1.546875q-1.65625 0 -2.75 0.625q-1.09375 0.625 -1.953125 1.859375l-0.71875 0q1.203125 -2.46875 2.59375 -3.578125q1.390625 -1.125 3.359375 -1.125q1.40625 0 2.734375 0.765625q1.34375 0.765625 2.15625 2.46875q0.828125 1.703125 0.828125 4.609375q0 5.53125 -2.40625 9.9375q-2.703125 4.921875 -6.84375 4.921875q-2.4375 0 -3.875 -1.40625q-1.421875 -1.40625 -1.421875 -3.828125q0 -1.828125 0.71875 -3.578125q0.734375 -1.765625 1.84375 -2.984375q1.109375 -1.21875 2.46875 -1.9375q1.765625 -0.9375 3.59375 -0.9375q1.28125 0 2.3125 0.5q1.046875 0.484375 1.71875 1.1875q0.421875 0.4375 0.859375 1.296875zm-0.265625 1.390625q-0.609375 -1.734375 -1.828125 -2.625q-1.203125 -0.890625 -2.65625 -0.890625q-1.40625 0 -2.765625 0.96875q-1.359375 0.96875 -2.359375 3.40625q-1.0 2.421875 -1.0 4.84375q0 1.78125 0.859375 2.75q0.859375 0.953125 2.1875 0.953125q1.921875 0 3.921875 -2.03125q2.546875 -2.59375 3.640625 -7.375z" fill-rule="nonzero"></path><path fill="#ff0000" d="m703.6366 129.2948l-15.703125 0l0.21875 -0.578125q1.25 -0.03125 1.671875 -0.203125q0.65625 -0.28125 0.96875 -0.734375q0.484375 -0.71875 1.03125 -2.59375l3.734375 -12.890625q0.46875 -1.59375 0.46875 -2.34375q0 -0.59375 -0.4375 -0.921875q-0.421875 -0.328125 -1.609375 -0.328125q-0.265625 0 -0.421875 -0.015625l0.1875 -0.578125l8.640625 0l-0.125 0.578125q-1.453125 0 -2.0625 0.28125q-0.609375 0.28125 -1.015625 0.921875q-0.28125 0.421875 -0.921875 2.625l-3.671875 12.671875q-0.421875 1.4375 -0.421875 2.0q0 0.375 0.421875 0.71875q0.265625 0.234375 1.203125 0.234375l2.046875 0q2.234375 0 3.546875 -0.5625q0.96875 -0.421875 1.78125 -1.265625q0.4375 -0.46875 1.546875 -2.328125l0.40625 -0.703125l0.578125 0l-2.0625 6.015625z" fill-rule="nonzero"></path><path fill="#ff0000" d="m687.66785 156.09167q0.1875 -1.765625 0.1875 -2.90625q0 -2.8125 -1.484375 -4.34375q-1.46875 -1.546875 -3.921875 -1.546875q-1.65625 0 -2.75 0.625q-1.09375 0.625 -1.953125 1.859375l-0.71875 0q1.203125 -2.46875 2.59375 -3.578125q1.390625 -1.125 3.359375 -1.125q1.40625 0 2.734375 0.765625q1.34375 0.765625 2.15625 2.46875q0.828125 1.703125 0.828125 4.609375q0 5.53125 -2.40625 9.9375q-2.703125 4.921875 -6.84375 4.921875q-2.4375 0 -3.875 -1.40625q-1.421875 -1.40625 -1.421875 -3.828125q0 -1.828125 0.71875 -3.578125q0.734375 -1.765625 1.84375 -2.984375q1.109375 -1.21875 2.46875 -1.9375q1.765625 -0.9375 3.59375 -0.9375q1.28125 0 2.3125 0.5q1.046875 0.484375 1.71875 1.1875q0.421875 0.4375 0.859375 1.296875zm-0.265625 1.390625q-0.609375 -1.734375 -1.828125 -2.625q-1.203125 -0.890625 -2.65625 -0.890625q-1.40625 0 -2.765625 0.96875q-1.359375 0.96875 -2.359375 3.40625q-1.0 2.421875 -1.0 4.84375q0 1.78125 0.859375 2.75q0.859375 0.953125 2.1875 0.953125q1.921875 0 3.921875 -2.03125q2.546875 -2.59375 3.640625 -7.375z" fill-rule="nonzero"></path><path fill="#ff0000" d="m711.7147 146.1073l0 0.578125q-1.046875 0.140625 -1.609375 0.609375q-0.78125 0.65625 -2.46875 3.578125l-4.59375 7.671875l0 5.125q0 1.640625 0.171875 2.046875q0.171875 0.390625 0.671875 0.703125q0.515625 0.296875 1.359375 0.296875l1.1875 0l0 0.578125l-11.890625 0l0 -0.578125l1.109375 0q0.9375 0 1.484375 -0.328125q0.40625 -0.21875 0.640625 -0.75q0.171875 -0.375 0.171875 -1.96875l0 -4.25l-4.984375 -9.078125q-1.484375 -2.6875 -2.09375 -3.15625q-0.609375 -0.484375 -1.625 -0.5l0 -0.578125l10.15625 0l0 0.578125l-0.453125 0q-0.921875 0 -1.296875 0.265625q-0.359375 0.265625 -0.359375 0.5625q0 0.5625 1.25 2.828125l3.828125 7.015625l3.8125 -6.390625q1.421875 -2.34375 1.421875 -3.109375q0 -0.421875 -0.40625 -0.703125q-0.53125 -0.390625 -1.953125 -0.46875l0 -0.578125l6.46875 0z" fill-rule="nonzero"></path><path fill="#000000" fill-opacity="0.0" d="m664.1522 136.5748l58.80316 0" fill-rule="evenodd"></path><path stroke="#ff0000" stroke-width="1.0" stroke-linejoin="round" stroke-linecap="butt" d="m664.1522 136.5748l58.80316 0" fill-rule="evenodd"></path><path fill="#000000" fill-opacity="0.0" d="m536.98425 280.9029l58.80316 0l0 87.27557l-58.80316 0z" fill-rule="evenodd"></path><path fill="#ff0000" d="m560.4999 306.05756q0.1875 -1.765625 0.1875 -2.90625q0 -2.8125 -1.484375 -4.34375q-1.46875 -1.546875 -3.921875 -1.546875q-1.65625 0 -2.75 0.625q-1.09375 0.625 -1.953125 1.859375l-0.71875 0q1.203125 -2.46875 2.59375 -3.578125q1.390625 -1.125 3.359375 -1.125q1.40625 0 2.734375 0.765625q1.34375 0.765625 2.15625 2.46875q0.828125 1.703125 0.828125 4.609375q0 5.53125 -2.40625 9.9375q-2.703125 4.921875 -6.84375 4.921875q-2.4375 0 -3.875 -1.40625q-1.421875 -1.40625 -1.421875 -3.828125q0 -1.828125 0.71875 -3.578125q0.734375 -1.765625 1.84375 -2.984375q1.109375 -1.21875 2.46875 -1.9375q1.765625 -0.9375 3.59375 -0.9375q1.28125 0 2.3125 0.5q1.046875 0.484375 1.71875 1.1875q0.421875 0.4375 0.859375 1.296875zm-0.265625 1.390625q-0.609375 -1.734375 -1.828125 -2.625q-1.203125 -0.890625 -2.65625 -0.890625q-1.40625 0 -2.765625 0.96875q-1.359375 0.96875 -2.359375 3.40625q-1.0 2.421875 -1.0 4.84375q0 1.78125 0.859375 2.75q0.859375 0.953125 2.1875 0.953125q1.921875 0 3.921875 -2.03125q2.546875 -2.59375 3.640625 -7.375z" fill-rule="nonzero"></path><path fill="#ff0000" d="m576.4686 317.26068l-15.703125 0l0.21875 -0.578125q1.25 -0.03125 1.671875 -0.203125q0.65625 -0.28125 0.96875 -0.734375q0.484375 -0.71875 1.03125 -2.59375l3.734375 -12.890625q0.46875 -1.59375 0.46875 -2.34375q0 -0.59375 -0.4375 -0.921875q-0.421875 -0.328125 -1.609375 -0.328125q-0.265625 0 -0.421875 -0.015625l0.1875 -0.578125l8.640625 0l-0.125 0.578125q-1.453125 0 -2.0625 0.28125q-0.609375 0.28125 -1.015625 0.921875q-0.28125 0.421875 -0.921875 2.625l-3.671875 12.671875q-0.421875 1.4375 -0.421875 2.0q0 0.375 0.421875 0.71875q0.265625 0.234375 1.203125 0.234375l2.046875 0q2.234375 0 3.546875 -0.5625q0.96875 -0.421875 1.78125 -1.265625q0.4375 -0.46875 1.546875 -2.328125l0.40625 -0.703125l0.578125 0l-2.0625 6.015625z" fill-rule="nonzero"></path><path fill="#ff0000" d="m560.4999 344.05756q0.1875 -1.765625 0.1875 -2.90625q0 -2.8125 -1.484375 -4.34375q-1.46875 -1.546875 -3.921875 -1.546875q-1.65625 0 -2.75 0.625q-1.09375 0.625 -1.953125 1.859375l-0.71875 0q1.203125 -2.46875 2.59375 -3.578125q1.390625 -1.125 3.359375 -1.125q1.40625 0 2.734375 0.765625q1.34375 0.765625 2.15625 2.46875q0.828125 1.703125 0.828125 4.609375q0 5.53125 -2.40625 9.9375q-2.703125 4.921875 -6.84375 4.921875q-2.4375 0 -3.875 -1.40625q-1.421875 -1.40625 -1.421875 -3.828125q0 -1.828125 0.71875 -3.578125q0.734375 -1.765625 1.84375 -2.984375q1.109375 -1.21875 2.46875 -1.9375q1.765625 -0.9375 3.59375 -0.9375q1.28125 0 2.3125 0.5q1.046875 0.484375 1.71875 1.1875q0.421875 0.4375 0.859375 1.296875zm-0.265625 1.390625q-0.609375 -1.734375 -1.828125 -2.625q-1.203125 -0.890625 -2.65625 -0.890625q-1.40625 0 -2.765625 0.96875q-1.359375 0.96875 -2.359375 3.40625q-1.0 2.421875 -1.0 4.84375q0 1.78125 0.859375 2.75q0.859375 0.953125 2.1875 0.953125q1.921875 0 3.921875 -2.03125q2.546875 -2.59375 3.640625 -7.375z" fill-rule="nonzero"></path><path fill="#ff0000" d="m584.54675 334.07318l0 0.578125q-1.046875 0.140625 -1.609375 0.609375q-0.78125 0.65625 -2.46875 3.578125l-4.59375 7.671875l0 5.125q0 1.640625 0.171875 2.046875q0.171875 0.390625 0.671875 0.703125q0.515625 0.296875 1.359375 0.296875l1.1875 0l0 0.578125l-11.890625 0l0 -0.578125l1.109375 0q0.9375 0 1.484375 -0.328125q0.40625 -0.21875 0.640625 -0.75q0.171875 -0.375 0.171875 -1.96875l0 -4.25l-4.984375 -9.078125q-1.484375 -2.6875 -2.09375 -3.15625q-0.609375 -0.484375 -1.625 -0.5l0 -0.578125l10.15625 0l0 0.578125l-0.453125 0q-0.921875 0 -1.296875 0.265625q-0.359375 0.265625 -0.359375 0.5625q0 0.5625 1.25 2.828125l3.828125 7.015625l3.8125 -6.390625q1.421875 -2.34375 1.421875 -3.109375q0 -0.421875 -0.40625 -0.703125q-0.53125 -0.390625 -1.953125 -0.46875l0 -0.578125l6.46875 0z" fill-rule="nonzero"></path><path fill="#000000" fill-opacity="0.0" d="m536.98425 324.54068l58.80316 0" fill-rule="evenodd"></path><path stroke="#ff0000" stroke-width="1.0" stroke-linejoin="round" stroke-linecap="butt" d="m536.98425 324.54068l58.80316 0" fill-rule="evenodd"></path><path fill="#000000" fill-opacity="0.0" d="m845.28217 168.7441l76.91339 0l0 48.72441l-76.91339 0z" fill-rule="evenodd"></path><path fill="#ff0000" d="m858.71967 199.6641q-1.375 -1.75 -2.328125 -4.078125q-0.953125 -2.34375 -0.953125 -4.84375q0 -2.21875 0.703125 -4.234375q0.84375 -2.34375 2.578125 -4.671875l1.203125 0q-1.125 1.921875 -1.484375 2.75q-0.5625 1.28125 -0.890625 2.671875q-0.40625 1.734375 -0.40625 3.484375q0 4.46875 2.78125 8.921875l-1.203125 0zm2.5720215 -7.59375l1.671875 -0.21875q0.28125 1.421875 0.96875 2.046875q0.703125 0.625 1.6875 0.625q1.1875 0 2.0 -0.8125q0.8125 -0.828125 0.8125 -2.03125q0 -1.140625 -0.765625 -1.890625q-0.75 -0.75 -1.90625 -0.75q-0.46875 0 -1.171875 0.1875l0.1875 -1.46875q0.15625 0.015625 0.265625 0.015625q1.0625 0 1.90625 -0.546875q0.859375 -0.5625 0.859375 -1.71875q0 -0.921875 -0.625 -1.515625q-0.609375 -0.609375 -1.59375 -0.609375q-0.96875 0 -1.625 0.609375q-0.640625 0.609375 -0.828125 1.84375l-1.671875 -0.296875q0.296875 -1.6875 1.375 -2.609375q1.09375 -0.921875 2.71875 -0.921875q1.109375 0 2.046875 0.484375q0.9375 0.46875 1.421875 1.296875q0.5 0.828125 0.5 1.75q0 0.890625 -0.46875 1.609375q-0.46875 0.71875 -1.40625 1.15625q1.21875 0.265625 1.875 1.15625q0.671875 0.875 0.671875 2.1875q0 1.78125 -1.296875 3.015625q-1.296875 1.234375 -3.28125 1.234375q-1.796875 0 -2.984375 -1.0625q-1.171875 -1.0625 -1.34375 -2.765625zm11.266357 3.59375l0 -1.90625l1.90625 0l0 1.90625q0 1.046875 -0.375 1.6875q-0.375 0.65625 -1.171875 1.0l-0.46875 -0.71875q0.53125 -0.21875 0.78125 -0.671875q0.25 -0.453125 0.28125 -1.296875l-0.953125 0zm5.8395386 4.0l-1.1875 0q2.765625 -4.453125 2.765625 -8.921875q0 -1.734375 -0.390625 -3.453125q-0.328125 -1.390625 -0.890625 -2.671875q-0.359375 -0.84375 -1.484375 -2.78125l1.1875 0q1.75 2.328125 2.578125 4.671875q0.71875 2.015625 0.71875 4.234375q0 2.5 -0.96875 4.84375q-0.953125 2.328125 -2.328125 4.078125z" fill-rule="nonzero"></path><path fill="#000000" fill-opacity="0.0" d="m666.2651 166.78084l76.91339 0l0 48.72441l-76.91339 0z" fill-rule="evenodd"></path><path fill="#ff0000" d="m679.7026 197.70084q-1.375 -1.75 -2.328125 -4.078125q-0.953125 -2.34375 -0.953125 -4.84375q0 -2.21875 0.703125 -4.234375q0.84375 -2.34375 2.578125 -4.671875l1.203125 0q-1.125 1.921875 -1.484375 2.75q-0.5625 1.28125 -0.890625 2.671875q-0.40625 1.734375 -0.40625 3.484375q0 4.46875 2.78125 8.921875l-1.203125 0zm2.5720825 -7.59375l1.671875 -0.21875q0.28125 1.421875 0.96875 2.046875q0.703125 0.625 1.6875 0.625q1.1875 0 2.0 -0.8125q0.8125 -0.828125 0.8125 -2.03125q0 -1.140625 -0.765625 -1.890625q-0.75 -0.75 -1.90625 -0.75q-0.46875 0 -1.171875 0.1875l0.1875 -1.46875q0.15625 0.015625 0.265625 0.015625q1.0625 0 1.90625 -0.546875q0.859375 -0.5625 0.859375 -1.71875q0 -0.921875 -0.625 -1.515625q-0.609375 -0.609375 -1.59375 -0.609375q-0.96875 0 -1.625 0.609375q-0.640625 0.609375 -0.828125 1.84375l-1.671875 -0.296875q0.296875 -1.6875 1.375 -2.609375q1.09375 -0.921875 2.71875 -0.921875q1.109375 0 2.046875 0.484375q0.9375 0.46875 1.421875 1.296875q0.5 0.828125 0.5 1.75q0 0.890625 -0.46875 1.609375q-0.46875 0.71875 -1.40625 1.15625q1.21875 0.265625 1.875 1.15625q0.671875 0.875 0.671875 2.1875q0 1.78125 -1.296875 3.015625q-1.296875 1.234375 -3.28125 1.234375q-1.796875 0 -2.984375 -1.0625q-1.171875 -1.0625 -1.34375 -2.765625zm11.266357 3.59375l0 -1.90625l1.90625 0l0 1.90625q0 1.046875 -0.375 1.6875q-0.375 0.65625 -1.171875 1.0l-0.46875 -0.71875q0.53125 -0.21875 0.78125 -0.671875q0.25 -0.453125 0.28125 -1.296875l-0.953125 0zm5.8395386 4.0l-1.1875 0q2.765625 -4.453125 2.765625 -8.921875q0 -1.734375 -0.390625 -3.453125q-0.328125 -1.390625 -0.890625 -2.671875q-0.359375 -0.84375 -1.484375 -2.78125l1.1875 0q1.75 2.328125 2.578125 4.671875q0.71875 2.015625 0.71875 4.234375q0 2.5 -0.96875 4.84375q-0.953125 2.328125 -2.328125 4.078125z" fill-rule="nonzero"></path><path fill="#000000" fill-opacity="0.0" d="m536.9829 355.48163l76.91339 0l0 48.724396l-76.91339 0z" fill-rule="evenodd"></path><path fill="#ff0000" d="m550.4204 386.4016q-1.375 -1.75 -2.328125 -4.078125q-0.953125 -2.34375 -0.953125 -4.84375q0 -2.21875 0.703125 -4.234375q0.84375 -2.34375 2.578125 -4.671875l1.203125 0q-1.125 1.921875 -1.484375 2.75q-0.5625 1.28125 -0.890625 2.671875q-0.40625 1.734375 -0.40625 3.484375q0 4.46875 2.78125 8.921875l-1.203125 0zm2.5720825 -7.59375l1.671875 -0.21875q0.28125 1.421875 0.96875 2.046875q0.703125 0.625 1.6875 0.625q1.1875 0 2.0 -0.8125q0.8125 -0.828125 0.8125 -2.03125q0 -1.140625 -0.765625 -1.890625q-0.75 -0.75 -1.90625 -0.75q-0.46875 0 -1.171875 0.1875l0.1875 -1.46875q0.15625 0.015625 0.265625 0.015625q1.0625 0 1.90625 -0.546875q0.859375 -0.5625 0.859375 -1.71875q0 -0.921875 -0.625 -1.515625q-0.609375 -0.609375 -1.59375 -0.609375q-0.96875 0 -1.625 0.609375q-0.640625 0.609375 -0.828125 1.84375l-1.671875 -0.296875q0.296875 -1.6875 1.375 -2.609375q1.09375 -0.921875 2.71875 -0.921875q1.109375 0 2.046875 0.484375q0.9375 0.46875 1.421875 1.296875q0.5 0.828125 0.5 1.75q0 0.890625 -0.46875 1.609375q-0.46875 0.71875 -1.40625 1.15625q1.21875 0.265625 1.875 1.15625q0.671875 0.875 0.671875 2.1875q0 1.78125 -1.296875 3.015625q-1.296875 1.234375 -3.28125 1.234375q-1.796875 0 -2.984375 -1.0625q-1.171875 -1.0625 -1.34375 -2.765625zm11.266357 3.59375l0 -1.90625l1.90625 0l0 1.90625q0 1.046875 -0.375 1.6875q-0.375 0.65625 -1.171875 1.0l-0.46875 -0.71875q0.53125 -0.21875 0.78125 -0.671875q0.25 -0.453125 0.28125 -1.296875l-0.953125 0zm5.8395386 4.0l-1.1875 0q2.765625 -4.453125 2.765625 -8.921875q0 -1.734375 -0.390625 -3.453125q-0.328125 -1.390625 -0.890625 -2.671875q-0.359375 -0.84375 -1.484375 -2.78125l1.1875 0q1.75 2.328125 2.578125 4.671875q0.71875 2.015625 0.71875 4.234375q0 2.5 -0.96875 4.84375q-0.953125 2.328125 -2.328125 4.078125z" fill-rule="nonzero"></path><path fill="#000000" fill-opacity="0.0" d="m839.64435 16.969816l76.91339 0l0 48.72441l-76.91339 0z" fill-rule="evenodd"></path><path fill="#000000" d="m853.08185 47.889816q-1.375 -1.75 -2.328125 -4.078125q-0.953125 -2.34375 -0.953125 -4.84375q0 -2.21875 0.703125 -4.234375q0.84375 -2.34375 2.578125 -4.671877l1.203125 0q-1.125 1.921875 -1.484375 2.750002q-0.5625 1.28125 -0.890625 2.671875q-0.40625 1.734375 -0.40625 3.484375q0 4.46875 2.78125 8.921875l-1.203125 0zm2.5720825 -7.59375l1.671875 -0.21875q0.28125 1.421875 0.96875 2.046875q0.703125 0.625 1.6875 0.625q1.1875 0 2.0 -0.8125q0.8125 -0.828125 0.8125 -2.03125q0 -1.140625 -0.765625 -1.890625q-0.75 -0.75 -1.90625 -0.75q-0.46875 0 -1.171875 0.1875l0.1875 -1.46875q0.15625 0.015625 0.265625 0.015625q1.0625 0 1.90625 -0.546875q0.859375 -0.5625 0.859375 -1.71875q0 -0.921875 -0.625 -1.515625q-0.609375 -0.6093769 -1.59375 -0.6093769q-0.96875 0 -1.625 0.6093769q-0.640625 0.609375 -0.828125 1.84375l-1.671875 -0.296875q0.296875 -1.6875 1.375 -2.609377q1.09375 -0.921875 2.71875 -0.921875q1.109375 0 2.046875 0.484375q0.9375 0.46875 1.421875 1.2968769q0.5 0.828125 0.5 1.75q0 0.890625 -0.46875 1.609375q-0.46875 0.71875 -1.40625 1.15625q1.21875 0.265625 1.875 1.15625q0.671875 0.875 0.671875 2.1875q0 1.78125 -1.296875 3.015625q-1.296875 1.234375 -3.28125 1.234375q-1.796875 0 -2.984375 -1.0625q-1.171875 -1.0625 -1.34375 -2.765625zm11.266296 3.59375l0 -1.90625l1.90625 0l0 1.90625q0 1.046875 -0.375 1.6875q-0.375 0.65625 -1.171875 1.0l-0.46875 -0.71875q0.53125 -0.21875 0.78125 -0.671875q0.25 -0.453125 0.28125 -1.296875l-0.953125 0zm5.8395996 4.0l-1.1875 0q2.765625 -4.453125 2.765625 -8.921875q0 -1.734375 -0.390625 -3.453125q-0.328125 -1.390625 -0.890625 -2.671875q-0.359375 -0.8437519 -1.484375 -2.781252l1.1875 0q1.75 2.328127 2.578125 4.671877q0.71875 2.015625 0.71875 4.234375q0 2.5 -0.96875 4.84375q-0.953125 2.328125 -2.328125 4.078125z" fill-rule="nonzero"></path><path fill="#000000" fill-opacity="0.0" d="m678.4921 11.660105l76.91339 0l0 48.72441l-76.91339 0z" fill-rule="evenodd"></path><path fill="#000000" d="m691.9296 42.580105q-1.375 -1.75 -2.328125 -4.078125q-0.953125 -2.34375 -0.953125 -4.84375q0 -2.218752 0.703125 -4.234377q0.84375 -2.34375 2.578125 -4.671875l1.203125 0q-1.125 1.921875 -1.484375 2.75q-0.5625 1.28125 -0.890625 2.671875q-0.40625 1.734375 -0.40625 3.484377q0 4.46875 2.78125 8.921875l-1.203125 0zm2.5720215 -7.59375l1.671875 -0.21875q0.28125 1.421875 0.96875 2.046875q0.703125 0.625 1.6875 0.625q1.1875 0 2.0 -0.8125q0.8125 -0.828125 0.8125 -2.03125q0 -1.140625 -0.765625 -1.890625q-0.75 -0.7500019 -1.90625 -0.7500019q-0.46875 0 -1.171875 0.1875019l0.1875 -1.4687519q0.15625 0.015625 0.265625 0.015625q1.0625 0 1.90625 -0.546875q0.859375 -0.5625 0.859375 -1.71875q0 -0.921875 -0.625 -1.515625q-0.609375 -0.609375 -1.59375 -0.609375q-0.96875 0 -1.625 0.609375q-0.640625 0.609375 -0.828125 1.84375l-1.671875 -0.296875q0.296875 -1.6875 1.375 -2.609375q1.09375 -0.921875 2.71875 -0.921875q1.109375 0 2.046875 0.484375q0.9375 0.46875 1.421875 1.296875q0.5 0.828125 0.5 1.75q0 0.890625 -0.46875 1.609375q-0.46875 0.71875 -1.40625 1.15625q1.21875 0.265625 1.875 1.1562519q0.671875 0.875 0.671875 2.1875q0 1.78125 -1.296875 3.015625q-1.296875 1.234375 -3.28125 1.234375q-1.796875 0 -2.984375 -1.0625q-1.171875 -1.0625 -1.34375 -2.765625zm11.266357 3.59375l0 -1.90625l1.90625 0l0 1.90625q0 1.046875 -0.375 1.6875q-0.375 0.65625 -1.171875 1.0l-0.46875 -0.71875q0.53125 -0.21875 0.78125 -0.671875q0.25 -0.453125 0.28125 -1.296875l-0.953125 0zm5.8395386 4.0l-1.1875 0q2.765625 -4.453125 2.765625 -8.921875q0 -1.7343769 -0.390625 -3.453127q-0.328125 -1.390625 -0.890625 -2.671875q-0.359375 -0.84375 -1.484375 -2.78125l1.1875 0q1.75 2.328125 2.578125 4.671875q0.71875 2.015625 0.71875 4.234377q0 2.5 -0.96875 4.84375q-0.953125 2.328125 -2.328125 4.078125z" fill-rule="nonzero"></path><path fill="#000000" fill-opacity="0.0" d="m517.3399 -0.001312336l76.91339 0l0 48.72441l-76.91339 0z" fill-rule="evenodd"></path><path fill="#000000" d="m530.7774 30.918686q-1.375 -1.75 -2.328125 -4.078125q-0.953125 -2.34375 -0.953125 -4.84375q0 -2.21875 0.703125 -4.234375q0.84375 -2.34375 2.578125 -4.671875l1.203125 0q-1.125 1.921875 -1.484375 2.75q-0.5625 1.28125 -0.890625 2.671875q-0.40625 1.734375 -0.40625 3.484375q0 4.46875 2.78125 8.921875l-1.203125 0zm11.3376465 -5.609375l0 1.609375l-8.984375 0q-0.015625 -0.609375 0.1875 -1.15625q0.34375 -0.921875 1.09375 -1.8125q0.765625 -0.890625 2.1875 -2.0625q2.21875 -1.8125 3.0 -2.875q0.78125 -1.0625 0.78125 -2.015625q0 -0.984375 -0.71875 -1.671875q-0.703125 -0.6875 -1.84375 -0.6875q-1.203125 0 -1.9375 0.734375q-0.71875 0.71875 -0.71875 2.0l-1.71875 -0.171875q0.171875 -1.921875 1.328125 -2.921875q1.15625 -1.015625 3.09375 -1.015625q1.953125 0 3.09375 1.09375q1.140625 1.078125 1.140625 2.6875q0 0.8125 -0.34375 1.609375q-0.328125 0.78125 -1.109375 1.65625q-0.765625 0.859375 -2.5625 2.390625q-1.5 1.265625 -1.9375 1.71875q-0.421875 0.4375 -0.703125 0.890625l6.671875 0zm2.5007324 1.609375l0 -1.90625l1.90625 0l0 1.90625q0 1.046875 -0.375 1.6875q-0.375 0.65625 -1.171875 1.0l-0.46875 -0.71875q0.53125 -0.21875 0.78125 -0.671875q0.25 -0.453125 0.28125 -1.296875l-0.953125 0zm5.8395386 4.0l-1.1875 0q2.765625 -4.453125 2.765625 -8.921875q0 -1.734375 -0.390625 -3.453125q-0.328125 -1.390625 -0.890625 -2.671875q-0.359375 -0.84375 -1.484375 -2.78125l1.1875 0q1.75 2.328125 2.578125 4.671875q0.71875 2.015625 0.71875 4.234375q0 2.5 -0.96875 4.84375q-0.953125 2.328125 -2.328125 4.078125z" fill-rule="nonzero"></path><path fill="#000000" fill-opacity="0.0" d="m396.79922 103.02756l76.91336 0l0 48.72441l-76.91336 0z" fill-rule="evenodd"></path><path fill="#000000" d="m410.23672 133.94756q-1.375 -1.75 -2.328125 -4.078125q-0.953125 -2.34375 -0.953125 -4.84375q0 -2.21875 0.703125 -4.234375q0.84375 -2.34375 2.578125 -4.671875l1.203125 0q-1.125 1.921875 -1.484375 2.75q-0.5625 1.28125 -0.890625 2.671875q-0.40625 1.734375 -0.40625 3.484375q0 4.46875 2.78125 8.921875l-1.203125 0zm11.337677 -5.609375l0 1.609375l-8.984375 0q-0.015625 -0.609375 0.1875 -1.15625q0.34375 -0.921875 1.09375 -1.8125q0.765625 -0.890625 2.1875 -2.0625q2.21875 -1.8125 3.0 -2.875q0.78125 -1.0625 0.78125 -2.015625q0 -0.984375 -0.71875 -1.671875q-0.703125 -0.6875 -1.84375 -0.6875q-1.203125 0 -1.9375 0.734375q-0.71875 0.71875 -0.71875 2.0l-1.71875 -0.171875q0.171875 -1.921875 1.328125 -2.921875q1.15625 -1.015625 3.09375 -1.015625q1.953125 0 3.09375 1.09375q1.140625 1.078125 1.140625 2.6875q0 0.8125 -0.34375 1.609375q-0.328125 0.78125 -1.109375 1.65625q-0.765625 0.859375 -2.5625 2.390625q-1.5 1.265625 -1.9375 1.71875q-0.421875 0.4375 -0.703125 0.890625l6.671875 0zm2.500702 1.609375l0 -1.90625l1.90625 0l0 1.90625q0 1.046875 -0.375 1.6875q-0.375 0.65625 -1.171875 1.0l-0.46875 -0.71875q0.53125 -0.21875 0.78125 -0.671875q0.25 -0.453125 0.28125 -1.296875l-0.953125 0zm9.475983 -3.59375l1.671875 -0.21875q0.28125 1.421875 0.96875 2.046875q0.703125 0.625 1.6875 0.625q1.1875 0 2.0 -0.8125q0.8125 -0.828125 0.8125 -2.03125q0 -1.140625 -0.765625 -1.890625q-0.75 -0.75 -1.90625 -0.75q-0.46875 0 -1.171875 0.1875l0.1875 -1.46875q0.15625 0.015625 0.265625 0.015625q1.0625 0 1.90625 -0.546875q0.859375 -0.5625 0.859375 -1.71875q0 -0.921875 -0.625 -1.515625q-0.609375 -0.609375 -1.59375 -0.609375q-0.96875 0 -1.625 0.609375q-0.640625 0.609375 -0.828125 1.84375l-1.671875 -0.296875q0.296875 -1.6875 1.375 -2.609375q1.09375 -0.921875 2.71875 -0.921875q1.109375 0 2.046875 0.484375q0.9375 0.46875 1.421875 1.296875q0.5 0.828125 0.5 1.75q0 0.890625 -0.46875 1.609375q-0.46875 0.71875 -1.40625 1.15625q1.21875 0.265625 1.875 1.15625q0.671875 0.875 0.671875 2.1875q0 1.78125 -1.296875 3.015625q-1.296875 1.234375 -3.28125 1.234375q-1.796875 0 -2.984375 -1.0625q-1.171875 -1.0625 -1.34375 -2.765625zm11.922607 7.59375l-1.1875 0q2.765625 -4.453125 2.765625 -8.921875q0 -1.734375 -0.390625 -3.453125q-0.328125 -1.390625 -0.890625 -2.671875q-0.359375 -0.84375 -1.484375 -2.78125l1.1875 0q1.75 2.328125 2.578125 4.671875q0.71875 2.015625 0.71875 4.234375q0 2.5 -0.96875 4.84375q-0.953125 2.328125 -2.328125 4.078125z" fill-rule="nonzero"></path><path fill="#000000" fill-opacity="0.0" d="m487.2454 191.2559l76.91342 0l0 48.72441l-76.91342 0z" fill-rule="evenodd"></path><path fill="#000000" d="m500.6829 222.1759q-1.375 -1.75 -2.328125 -4.078125q-0.953125 -2.34375 -0.953125 -4.84375q0 -2.21875 0.703125 -4.234375q0.84375 -2.34375 2.578125 -4.671875l1.203125 0q-1.125 1.921875 -1.484375 2.75q-0.5625 1.28125 -0.890625 2.671875q-0.40625 1.734375 -0.40625 3.484375q0 4.46875 2.78125 8.921875l-1.203125 0zm2.572052 -7.59375l1.671875 -0.21875q0.28125 1.421875 0.96875 2.046875q0.703125 0.625 1.6875 0.625q1.1875 0 2.0 -0.8125q0.8125 -0.828125 0.8125 -2.03125q0 -1.140625 -0.765625 -1.890625q-0.75 -0.75 -1.90625 -0.75q-0.46875 0 -1.171875 0.1875l0.1875 -1.46875q0.15625 0.015625 0.265625 0.015625q1.0625 0 1.90625 -0.546875q0.859375 -0.5625 0.859375 -1.71875q0 -0.921875 -0.625 -1.515625q-0.609375 -0.609375 -1.59375 -0.609375q-0.96875 0 -1.625 0.609375q-0.640625 0.609375 -0.828125 1.84375l-1.671875 -0.296875q0.296875 -1.6875 1.375 -2.609375q1.09375 -0.921875 2.71875 -0.921875q1.109375 0 2.046875 0.484375q0.9375 0.46875 1.421875 1.296875q0.5 0.828125 0.5 1.75q0 0.890625 -0.46875 1.609375q-0.46875 0.71875 -1.40625 1.15625q1.21875 0.265625 1.875 1.15625q0.671875 0.875 0.671875 2.1875q0 1.78125 -1.296875 3.015625q-1.296875 1.234375 -3.28125 1.234375q-1.796875 0 -2.984375 -1.0625q-1.171875 -1.0625 -1.34375 -2.765625zm11.266357 3.59375l0 -1.90625l1.90625 0l0 1.90625q0 1.046875 -0.375 1.6875q-0.375 0.65625 -1.171875 1.0l-0.46875 -0.71875q0.53125 -0.21875 0.78125 -0.671875q0.25 -0.453125 0.28125 -1.296875l-0.953125 0zm5.8395386 4.0l-1.1875 0q2.765625 -4.453125 2.765625 -8.921875q0 -1.734375 -0.390625 -3.453125q-0.328125 -1.390625 -0.890625 -2.671875q-0.359375 -0.84375 -1.484375 -2.78125l1.1875 0q1.75 2.328125 2.578125 4.671875q0.71875 2.015625 0.71875 4.234375q0 2.5 -0.96875 4.84375q-0.953125 2.328125 -2.328125 4.078125z" fill-rule="nonzero"></path><path fill="#000000" fill-opacity="0.0" d="m-0.32283464 42.37008l49.54331 0l0 48.72441l-49.54331 0z" fill-rule="evenodd"></path><path fill="#ff0000" d="m35.677166 59.71508q4.5 4.5 4.5 10.875q0 6.375 -4.5 10.875q-4.5 4.5 -10.875 4.5q-6.375 0 -10.875001 -4.5q-4.5 -4.5 -4.5 -10.875q0 -6.375 4.5 -10.875q4.500001 -4.5 10.875001 -4.5q6.375 0 10.875 4.5zm-0.875 20.875q4.125 -4.125 4.125 -10.0q0 -5.875 -4.125 -10.0q-4.125 -4.125 -10.0 -4.125q-5.875 0 -10.000001 4.125q-4.125 4.125 -4.125 10.0q0 5.875 4.125 10.0q4.125001 4.125 10.000001 4.125q5.875 0 10.0 -4.125zm-8.125 -20.875l0 21.375l-2.875 0l0 -16.75l-4.875 0l0 -2.0q4.625 0.25 5.875 -2.625l1.875 0z" fill-rule="nonzero"></path><path fill="#000000" fill-opacity="0.0" d="m52.233597 24.930447l58.803146 0l0 87.27559l-58.803146 0z" fill-rule="evenodd"></path><path fill="#ff0000" d="m75.74922 50.085117q0.1875 -1.765625 0.1875 -2.90625q0 -2.8125 -1.484375 -4.34375q-1.46875 -1.546875 -3.921875 -1.546875q-1.65625 0 -2.75 0.625q-1.09375 0.625 -1.953125 1.859375l-0.71875 0q1.203125 -2.46875 2.59375 -3.578125q1.390625 -1.125 3.359375 -1.125q1.40625 0 2.734375 0.765625q1.34375 0.765625 2.15625 2.46875q0.828125 1.703125 0.828125 4.609375q0 5.53125 -2.40625 9.9375q-2.703125 4.921875 -6.84375 4.921875q-2.4375 0 -3.875 -1.40625q-1.421875 -1.40625 -1.421875 -3.828125q0 -1.828125 0.71875 -3.578125q0.734375 -1.765625 1.84375 -2.984375q1.109375 -1.21875 2.46875 -1.9375q1.765625 -0.9375 3.59375 -0.9375q1.28125 0 2.3125 0.5q1.046875 0.484375 1.71875 1.1875q0.421875 0.4375 0.859375 1.296875zm-0.265625 1.390625q-0.609375 -1.734375 -1.828125 -2.625q-1.203125 -0.890625 -2.65625 -0.890625q-1.40625 0 -2.765625 0.96875q-1.359375 0.96875 -2.359375 3.40625q-1.0 2.421875 -1.0 4.84375q0 1.78125 0.859375 2.75q0.859375 0.953125 2.1875 0.953125q1.921875 0 3.921875 -2.03125q2.546875 -2.59375 3.640625 -7.375z" fill-rule="nonzero"></path><path fill="#ff0000" d="m91.71797 61.288242l-15.703125 0l0.21875 -0.578125q1.25 -0.03125 1.671875 -0.203125q0.65625 -0.28125 0.96875 -0.734375q0.484375 -0.71875 1.03125 -2.59375l3.734375 -12.890625q0.46875 -1.59375 0.46875 -2.34375q0 -0.59375 -0.4375 -0.921875q-0.421875 -0.328125 -1.609375 -0.328125q-0.265625 0 -0.421875 -0.015625l0.1875 -0.578125l8.640625 0l-0.125 0.578125q-1.453125 0 -2.0625 0.28125q-0.609375 0.28125 -1.015625 0.921875q-0.28125 0.421875 -0.921875 2.625l-3.671875 12.671875q-0.421875 1.4375 -0.421875 2.0q0 0.375 0.421875 0.71875q0.265625 0.234375 1.203125 0.234375l2.046875 0q2.234375 0 3.546875 -0.5625q0.96875 -0.421875 1.78125 -1.265625q0.4375 -0.46875 1.546875 -2.328125l0.40625 -0.703125l0.578125 0l-2.0625 6.015625z" fill-rule="nonzero"></path><path fill="#ff0000" d="m75.74922 88.08511q0.1875 -1.765625 0.1875 -2.90625q0 -2.8125 -1.484375 -4.34375q-1.46875 -1.546875 -3.921875 -1.546875q-1.65625 0 -2.75 0.625q-1.09375 0.625 -1.953125 1.859375l-0.71875 0q1.203125 -2.46875 2.59375 -3.578125q1.390625 -1.125 3.359375 -1.125q1.40625 0 2.734375 0.765625q1.34375 0.765625 2.15625 2.46875q0.828125 1.703125 0.828125 4.609375q0 5.53125 -2.40625 9.9375q-2.703125 4.921875 -6.84375 4.921875q-2.4375 0 -3.875 -1.40625q-1.421875 -1.40625 -1.421875 -3.828125q0 -1.828125 0.71875 -3.578125q0.734375 -1.765625 1.84375 -2.984375q1.109375 -1.21875 2.46875 -1.9375q1.765625 -0.9375 3.59375 -0.9375q1.28125 0 2.3125 0.5q1.046875 0.484375 1.71875 1.1875q0.421875 0.4375 0.859375 1.296875zm-0.265625 1.390625q-0.609375 -1.734375 -1.828125 -2.625q-1.203125 -0.890625 -2.65625 -0.890625q-1.40625 0 -2.765625 0.96875q-1.359375 0.96875 -2.359375 3.40625q-1.0 2.421875 -1.0 4.84375q0 1.78125 0.859375 2.75q0.859375 0.953125 2.1875 0.953125q1.921875 0 3.921875 -2.03125q2.546875 -2.59375 3.640625 -7.375z" fill-rule="nonzero"></path><path fill="#ff0000" d="m90.56172 86.86636l5.84375 8.671875q1.453125 2.15625 2.0625 2.625q0.625 0.453125 1.46875 0.546875l0 0.578125l-10.328125 0l0 -0.578125q1.234375 -0.09375 1.59375 -0.375q0.359375 -0.28125 0.359375 -0.6875q0 -0.28125 -0.109375 -0.5q-0.21875 -0.46875 -1.09375 -1.75l-3.09375 -4.578125l-3.234375 3.953125q-1.453125 1.796875 -1.453125 2.4375q0 0.453125 0.375 0.84375q0.375 0.390625 1.109375 0.5625q0.328125 0.09375 1.34375 0.09375l0 0.578125l-8.140625 0l0 -0.578125q1.390625 -0.203125 2.1875 -0.75q1.046875 -0.71875 2.921875 -3.0l4.203125 -5.125l-5.390625 -7.921875q-1.328125 -1.953125 -1.515625 -2.171875q-0.421875 -0.515625 -0.828125 -0.734375q-0.40625 -0.21875 -1.125 -0.328125l0 -0.578125l10.515625 0l0 0.578125l-0.53125 0q-0.90625 0 -1.265625 0.296875q-0.359375 0.28125 -0.359375 0.71875q0 0.34375 0.109375 0.59375l1.078125 1.625l2.625 4.0l2.234375 -2.734375q1.71875 -2.109375 1.71875 -2.953125q0 -0.421875 -0.25 -0.78125q-0.234375 -0.359375 -0.6875 -0.5625q-0.453125 -0.203125 -1.40625 -0.203125l0 -0.578125l7.796875 0l0 0.578125q-0.921875 0.015625 -1.484375 0.234375q-0.5625 0.203125 -1.203125 0.78125q-0.40625 0.375 -2.03125 2.328125l-4.015625 4.84375z" fill-rule="nonzero"></path><path fill="#000000" fill-opacity="0.0" d="m52.233597 68.568245l58.803146 0" fill-rule="evenodd"></path><path stroke="#ff0000" stroke-width="1.0" stroke-linejoin="round" stroke-linecap="butt" d="m52.233597 68.568245l58.803146 0" fill-rule="evenodd"></path><path fill="#000000" fill-opacity="0.0" d="m52.232285 99.509186l76.91339 0l0 48.72441l-76.91339 0z" fill-rule="evenodd"></path><path fill="#ff0000" d="m65.669785 130.42918q-1.375 -1.75 -2.328125 -4.078125q-0.953125 -2.34375 -0.953125 -4.84375q0 -2.21875 0.703125 -4.234375q0.84375 -2.34375 2.578125 -4.671875l1.203125 0q-1.125 1.921875 -1.484375 2.75q-0.5625 1.28125 -0.890625 2.671875q-0.40625 1.734375 -0.40625 3.484375q0 4.46875 2.78125 8.921875l-1.203125 0zm11.337677 -5.609375l0 1.609375l-8.984375 0q-0.015625 -0.609375 0.1875 -1.15625q0.34375 -0.921875 1.09375 -1.8125q0.765625 -0.890625 2.1875 -2.0625q2.21875 -1.8125 3.0 -2.875q0.78125 -1.0625 0.78125 -2.015625q0 -0.984375 -0.71875 -1.671875q-0.703125 -0.6875 -1.84375 -0.6875q-1.203125 0 -1.9375 0.734375q-0.71875 0.71875 -0.71875 2.0l-1.71875 -0.171875q0.171875 -1.921875 1.328125 -2.921875q1.15625 -1.015625 3.09375 -1.015625q1.953125 0 3.09375 1.09375q1.140625 1.078125 1.140625 2.6875q0 0.8125 -0.34375 1.609375q-0.328125 0.78125 -1.109375 1.65625q-0.765625 0.859375 -2.5625 2.390625q-1.5 1.265625 -1.9375 1.71875q-0.421875 0.4375 -0.703125 0.890625l6.671875 0zm2.5007172 1.609375l0 -1.90625l1.90625 0l0 1.90625q0 1.046875 -0.375 1.6875q-0.375 0.65625 -1.171875 1.0l-0.46875 -0.71875q0.53125 -0.21875 0.78125 -0.671875q0.25 -0.453125 0.28125 -1.296875l-0.953125 0zm5.839554 4.0l-1.1875 0q2.765625 -4.453125 2.765625 -8.921875q0 -1.734375 -0.390625 -3.453125q-0.328125 -1.390625 -0.890625 -2.671875q-0.359375 -0.84375 -1.484375 -2.78125l1.1875 0q1.75 2.328125 2.578125 4.671875q0.71875 2.015625 0.71875 4.234375q0 2.5 -0.96875 4.84375q-0.953125 2.328125 -2.328125 4.078125z" fill-rule="nonzero"></path><path fill="#000000" fill-opacity="0.0" d="m141.09055 24.930447l58.80316 0l0 87.27559l-58.80316 0z" fill-rule="evenodd"></path><path fill="#ff0000" d="m164.60617 50.085117q0.1875 -1.765625 0.1875 -2.90625q0 -2.8125 -1.484375 -4.34375q-1.46875 -1.546875 -3.921875 -1.546875q-1.65625 0 -2.75 0.625q-1.09375 0.625 -1.953125 1.859375l-0.71875 0q1.203125 -2.46875 2.59375 -3.578125q1.390625 -1.125 3.359375 -1.125q1.40625 0 2.734375 0.765625q1.34375 0.765625 2.15625 2.46875q0.828125 1.703125 0.828125 4.609375q0 5.53125 -2.40625 9.9375q-2.703125 4.921875 -6.84375 4.921875q-2.4375 0 -3.875 -1.40625q-1.421875 -1.40625 -1.421875 -3.828125q0 -1.828125 0.71875 -3.578125q0.734375 -1.765625 1.84375 -2.984375q1.109375 -1.21875 2.46875 -1.9375q1.765625 -0.9375 3.59375 -0.9375q1.28125 0 2.3125 0.5q1.046875 0.484375 1.71875 1.1875q0.421875 0.4375 0.859375 1.296875zm-0.265625 1.390625q-0.609375 -1.734375 -1.828125 -2.625q-1.203125 -0.890625 -2.65625 -0.890625q-1.40625 0 -2.765625 0.96875q-1.359375 0.96875 -2.359375 3.40625q-1.0 2.421875 -1.0 4.84375q0 1.78125 0.859375 2.75q0.859375 0.953125 2.1875 0.953125q1.921875 0 3.921875 -2.03125q2.546875 -2.59375 3.640625 -7.375z" fill-rule="nonzero"></path><path fill="#ff0000" d="m180.57492 61.288242l-15.703125 0l0.21875 -0.578125q1.25 -0.03125 1.671875 -0.203125q0.65625 -0.28125 0.96875 -0.734375q0.484375 -0.71875 1.03125 -2.59375l3.734375 -12.890625q0.46875 -1.59375 0.46875 -2.34375q0 -0.59375 -0.4375 -0.921875q-0.421875 -0.328125 -1.609375 -0.328125q-0.265625 0 -0.421875 -0.015625l0.1875 -0.578125l8.640625 0l-0.125 0.578125q-1.453125 0 -2.0625 0.28125q-0.609375 0.28125 -1.015625 0.921875q-0.28125 0.421875 -0.921875 2.625l-3.671875 12.671875q-0.421875 1.4375 -0.421875 2.0q0 0.375 0.421875 0.71875q0.265625 0.234375 1.203125 0.234375l2.046875 0q2.234375 0 3.546875 -0.5625q0.96875 -0.421875 1.78125 -1.265625q0.4375 -0.46875 1.546875 -2.328125l0.40625 -0.703125l0.578125 0l-2.0625 6.015625z" fill-rule="nonzero"></path><path fill="#ff0000" d="m164.60617 88.08511q0.1875 -1.765625 0.1875 -2.90625q0 -2.8125 -1.484375 -4.34375q-1.46875 -1.546875 -3.921875 -1.546875q-1.65625 0 -2.75 0.625q-1.09375 0.625 -1.953125 1.859375l-0.71875 0q1.203125 -2.46875 2.59375 -3.578125q1.390625 -1.125 3.359375 -1.125q1.40625 0 2.734375 0.765625q1.34375 0.765625 2.15625 2.46875q0.828125 1.703125 0.828125 4.609375q0 5.53125 -2.40625 9.9375q-2.703125 4.921875 -6.84375 4.921875q-2.4375 0 -3.875 -1.40625q-1.421875 -1.40625 -1.421875 -3.828125q0 -1.828125 0.71875 -3.578125q0.734375 -1.765625 1.84375 -2.984375q1.109375 -1.21875 2.46875 -1.9375q1.765625 -0.9375 3.59375 -0.9375q1.28125 0 2.3125 0.5q1.046875 0.484375 1.71875 1.1875q0.421875 0.4375 0.859375 1.296875zm-0.265625 1.390625q-0.609375 -1.734375 -1.828125 -2.625q-1.203125 -0.890625 -2.65625 -0.890625q-1.40625 0 -2.765625 0.96875q-1.359375 0.96875 -2.359375 3.40625q-1.0 2.421875 -1.0 4.84375q0 1.78125 0.859375 2.75q0.859375 0.953125 2.1875 0.953125q1.921875 0 3.921875 -2.03125q2.546875 -2.59375 3.640625 -7.375z" fill-rule="nonzero"></path><path fill="#ff0000" d="m188.65305 78.10074l0 0.578125q-1.046875 0.140625 -1.609375 0.609375q-0.78125 0.65625 -2.46875 3.578125l-4.59375 7.671875l0 5.125q0 1.640625 0.171875 2.046875q0.171875 0.390625 0.671875 0.703125q0.515625 0.296875 1.359375 0.296875l1.1875 0l0 0.578125l-11.890625 0l0 -0.578125l1.109375 0q0.9375 0 1.484375 -0.328125q0.40625 -0.21875 0.640625 -0.75q0.171875 -0.375 0.171875 -1.96875l0 -4.25l-4.984375 -9.078125q-1.484375 -2.6875 -2.09375 -3.15625q-0.609375 -0.484375 -1.625 -0.5l0 -0.578125l10.15625 0l0 0.578125l-0.453125 0q-0.921875 0 -1.296875 0.265625q-0.359375 0.265625 -0.359375 0.5625q0 0.5625 1.25 2.828125l3.828125 7.015625l3.8125 -6.390625q1.421875 -2.34375 1.421875 -3.109375q0 -0.421875 -0.40625 -0.703125q-0.53125 -0.390625 -1.953125 -0.46875l0 -0.578125l6.46875 0z" fill-rule="nonzero"></path><path fill="#000000" fill-opacity="0.0" d="m141.09055 68.568245l58.80316 0" fill-rule="evenodd"></path><path stroke="#ff0000" stroke-width="1.0" stroke-linejoin="round" stroke-linecap="butt" d="m141.09055 68.568245l58.80316 0" fill-rule="evenodd"></path><path fill="#000000" fill-opacity="0.0" d="m141.08923 99.509186l76.91339 0l0 48.72441l-76.91339 0z" fill-rule="evenodd"></path><path fill="#ff0000" d="m154.52673 130.42918q-1.375 -1.75 -2.328125 -4.078125q-0.953125 -2.34375 -0.953125 -4.84375q0 -2.21875 0.703125 -4.234375q0.84375 -2.34375 2.578125 -4.671875l1.203125 0q-1.125 1.921875 -1.484375 2.75q-0.5625 1.28125 -0.890625 2.671875q-0.40625 1.734375 -0.40625 3.484375q0 4.46875 2.78125 8.921875l-1.203125 0zm2.572052 -7.59375l1.671875 -0.21875q0.28125 1.421875 0.96875 2.046875q0.703125 0.625 1.6875 0.625q1.1875 0 2.0 -0.8125q0.8125 -0.828125 0.8125 -2.03125q0 -1.140625 -0.765625 -1.890625q-0.75 -0.75 -1.90625 -0.75q-0.46875 0 -1.171875 0.1875l0.1875 -1.46875q0.15625 0.015625 0.265625 0.015625q1.0625 0 1.90625 -0.546875q0.859375 -0.5625 0.859375 -1.71875q0 -0.921875 -0.625 -1.515625q-0.609375 -0.609375 -1.59375 -0.609375q-0.96875 0 -1.625 0.609375q-0.640625 0.609375 -0.828125 1.84375l-1.671875 -0.296875q0.296875 -1.6875 1.375 -2.609375q1.09375 -0.921875 2.71875 -0.921875q1.109375 0 2.046875 0.484375q0.9375 0.46875 1.421875 1.296875q0.5 0.828125 0.5 1.75q0 0.890625 -0.46875 1.609375q-0.46875 0.71875 -1.40625 1.15625q1.21875 0.265625 1.875 1.15625q0.671875 0.875 0.671875 2.1875q0 1.78125 -1.296875 3.015625q-1.296875 1.234375 -3.28125 1.234375q-1.796875 0 -2.984375 -1.0625q-1.171875 -1.0625 -1.34375 -2.765625zm11.266342 3.59375l0 -1.90625l1.90625 0l0 1.90625q0 1.046875 -0.375 1.6875q-0.375 0.65625 -1.171875 1.0l-0.46875 -0.71875q0.53125 -0.21875 0.78125 -0.671875q0.25 -0.453125 0.28125 -1.296875l-0.953125 0zm5.839554 4.0l-1.1875 0q2.765625 -4.453125 2.765625 -8.921875q0 -1.734375 -0.390625 -3.453125q-0.328125 -1.390625 -0.890625 -2.671875q-0.359375 -0.84375 -1.484375 -2.78125l1.1875 0q1.75 2.328125 2.578125 4.671875q0.71875 2.015625 0.71875 4.234375q0 2.5 -0.96875 4.84375q-0.953125 2.328125 -2.328125 4.078125z" fill-rule="nonzero"></path><path fill="#000000" fill-opacity="0.0" d="m107.75585 44.207348l172.81888 0l0 48.724407l-172.81888 0z" fill-rule="evenodd"></path><path fill="#ff0000" d="m117.38085 66.16455l17.093758 0l0 2.03125l-17.093758 0l0 -2.03125zm0 5.109375l17.093758 0l0 2.03125l-17.093758 0l0 -2.03125z" fill-rule="nonzero"></path><path fill="#ff0000" d="m210.11523 65.53955q1.0625 1.078125 1.0625 2.59375q0 1.515625 -0.9375 2.46875q-1.078125 1.0625 -2.59375 1.0625q-1.515625 0 -2.46875 -0.9375q-1.0625 -1.078125 -1.0625 -2.59375q0 -1.515625 0.9375 -2.46875q1.078125 -1.0625 2.59375 -1.0625q1.515625 0 2.46875 0.9375z" fill-rule="nonzero"></path><path fill="#ff0000" d="m246.70898 59.10205l0 0.578125q-0.59375 0.046875 -1.0 0.328125q-0.40625 0.28125 -0.71875 0.859375q-0.09375 0.1875 -0.984375 2.421875l-6.640625 17.484375l-0.609375 0l-5.25 -13.65625l-5.78125 13.65625l-0.578125 0l-6.96875 -17.296875q-1.0625 -2.609375 -1.484375 -3.15625q-0.421875 -0.546875 -1.421875 -0.640625l0 -0.578125l9.1875 0l0 0.578125q-1.109375 0.03125 -1.484375 0.34375q-0.359375 0.296875 -0.359375 0.75q0 0.59375 0.765625 2.515625l4.15625 10.28125l3.328125 -8.03125l-0.875 -2.25q-0.71875 -1.84375 -1.109375 -2.453125q-0.390625 -0.625 -0.90625 -0.890625q-0.5 -0.265625 -1.484375 -0.265625l0 -0.578125l10.265625 0l0 0.578125q-1.078125 0.015625 -1.546875 0.171875q-0.328125 0.109375 -0.515625 0.375q-0.1875 0.25 -0.1875 0.578125q0 0.359375 0.703125 2.203125l3.859375 10.03125l3.453125 -9.078125q0.546875 -1.40625 0.671875 -1.921875q0.125 -0.515625 0.125 -0.953125q0 -0.640625 -0.4375 -1.0q-0.4375 -0.375 -1.671875 -0.40625l0 -0.578125l5.5 0z" fill-rule="nonzero"></path><path fill="#000000" fill-opacity="0.0" d="m215.50919 98.7931l76.91339 0l0 48.724403l-76.91339 0z" fill-rule="evenodd"></path><path fill="#ff0000" d="m228.94669 129.7131q-1.375 -1.7500076 -2.328125 -4.0781326q-0.953125 -2.34375 -0.953125 -4.84375q0 -2.21875 0.703125 -4.234375q0.84375 -2.34375 2.578125 -4.671875l1.203125 0q-1.125 1.921875 -1.484375 2.75q-0.5625 1.28125 -0.890625 2.671875q-0.40625 1.734375 -0.40625 3.484375q0 4.46875 2.78125 8.921883l-1.203125 0zm2.572052 -7.5937576l1.671875 -0.21875q0.28125 1.421875 0.96875 2.046875q0.703125 0.625 1.6875 0.625q1.1875 0 2.0 -0.8125q0.8125 -0.828125 0.8125 -2.03125q0 -1.140625 -0.765625 -1.890625q-0.75 -0.75 -1.90625 -0.75q-0.46875 0 -1.171875 0.1875l0.1875 -1.46875q0.15625 0.015625 0.265625 0.015625q1.0625 0 1.90625 -0.546875q0.859375 -0.5625 0.859375 -1.71875q0 -0.921875 -0.625 -1.515625q-0.609375 -0.609375 -1.59375 -0.609375q-0.96875 0 -1.625 0.609375q-0.640625 0.609375 -0.828125 1.84375l-1.671875 -0.296875q0.296875 -1.6875 1.375 -2.609375q1.09375 -0.921875 2.71875 -0.921875q1.109375 0 2.046875 0.484375q0.9375 0.46875 1.421875 1.296875q0.5 0.828125 0.5 1.75q0 0.890625 -0.46875 1.609375q-0.46875 0.71875 -1.40625 1.15625q1.21875 0.265625 1.875 1.15625q0.671875 0.875 0.671875 2.1875q0 1.78125 -1.296875 3.015625q-1.296875 1.234375 -3.28125 1.234375q-1.796875 0 -2.984375 -1.0625q-1.171875 -1.0625 -1.34375 -2.765625zm11.266342 3.59375l0 -1.90625l1.90625 0l0 1.90625q0 1.046875 -0.375 1.6875q-0.375 0.6562576 -1.171875 1.0000076l-0.46875 -0.7187576q0.53125 -0.21875 0.78125 -0.671875q0.25 -0.453125 0.28125 -1.296875l-0.953125 0zm18.241623 -1.609375l0 1.609375l-8.98439 0q-0.015625 -0.609375 0.1875 -1.15625q0.34375 -0.921875 1.09375 -1.8125q0.765625 -0.890625 2.1875 -2.0625q2.2187653 -1.8125 3.0000153 -2.875q0.78125 -1.0625 0.78125 -2.015625q0 -0.984375 -0.71875 -1.671875q-0.703125 -0.6875 -1.84375 -0.6875q-1.2031403 0 -1.9375153 0.734375q-0.71875 0.71875 -0.71875 2.0l-1.71875 -0.171875q0.171875 -1.921875 1.328125 -2.921875q1.15625 -1.015625 3.0937653 -1.015625q1.953125 0 3.09375 1.09375q1.140625 1.078125 1.140625 2.6875q0 0.8125 -0.34375 1.609375q-0.328125 0.78125 -1.109375 1.65625q-0.765625 0.859375 -2.5625 2.390625q-1.5000153 1.265625 -1.9375153 1.71875q-0.421875 0.4375 -0.703125 0.890625l6.6718903 0zm3.156952 5.6093826l-1.1875 0q2.765625 -4.4531326 2.765625 -8.921883q0 -1.734375 -0.390625 -3.453125q-0.328125 -1.390625 -0.890625 -2.671875q-0.359375 -0.84375 -1.484375 -2.78125l1.1875 0q1.75 2.328125 2.578125 4.671875q0.71875 2.015625 0.71875 4.234375q0 2.5 -0.96875 4.84375q-0.953125 2.328125 -2.328125 4.0781326z" fill-rule="nonzero"></path><path fill="#000000" fill-opacity="0.0" d="m254.17455 31.845144l76.913376 0l0 48.72441l-76.913376 0z" fill-rule="evenodd"></path><path fill="#ff0000" d="m274.17453 46.18702l0.140625 2.953125l-0.359375 0q-0.109375 -0.78125 -0.28125 -1.125q-0.28125 -0.53125 -0.765625 -0.78125q-0.46875 -0.265625 -1.25 -0.265625l-1.78125 0l0 9.609375q0 1.171875 0.25 1.453125q0.359375 0.390625 1.09375 0.390625l0.4375 0l0 0.34375l-5.34375 0l0 -0.34375l0.453125 0q0.796875 0 1.125 -0.484375q0.203125 -0.296875 0.203125 -1.359375l0 -9.609375l-1.5 0q-0.890625 0 -1.265625 0.140625q-0.484375 0.171875 -0.828125 0.671875q-0.328125 0.5 -0.40625 1.359375l-0.34375 0l0.140625 -2.953125l10.28125 0z" fill-rule="nonzero"></path><path fill="#000000" fill-opacity="0.0" d="m0 159.50787l49.54331 0l0 48.72441l-49.54331 0z" fill-rule="evenodd"></path><path fill="#ff0000" d="m31.625 182.85287q0 2.5 -1.75 4.5q-1.5 1.375 -3.875 3.125q-4.25 3.125 -4.875 5.0l11.125 0l0 2.75l-14.375 0l0 -2.5q1.25 -3.0 4.5 -5.625q3.5 -2.75 4.875 -4.125q1.375 -1.25 1.375 -3.125q0 -1.625 -1.125 -2.75q-0.75 -0.75 -2.5 -0.75q-1.75 0 -2.5 0.75q-1.125 1.125 -0.875 3.125l-3.125 0q-0.125 -3.0 1.625 -4.75q1.875 -1.875 4.875 -1.875q3.0 0 4.75 1.75q1.875 1.875 1.875 4.5zm4.375 -6.0q4.5 4.5 4.5 10.875q0 6.375 -4.5 10.875q-4.5 4.5 -10.875 4.5q-6.375 0 -10.875 -4.5q-4.5 -4.5 -4.5 -10.875q0 -6.375 4.5 -10.875q4.5 -4.5 10.875 -4.5q6.375 0 10.875 4.5zm-0.875 20.875q4.125 -4.125 4.125 -10.0q0 -5.875 -4.125 -10.0q-4.125 -4.125 -10.0 -4.125q-5.875 0 -10.0 4.125q-4.125 4.125 -4.125 10.0q0 5.875 4.125 10.0q4.125 4.125 10.0 4.125q5.875 0 10.0 -4.125z" fill-rule="nonzero"></path><path fill="#000000" fill-opacity="0.0" d="m44.70866 142.06824l66.4252 0l0 87.27559l-66.4252 0z" fill-rule="evenodd"></path><path fill="#ff0000" d="m68.22429 167.22292q0.1875 -1.765625 0.1875 -2.90625q0 -2.8125 -1.484375 -4.34375q-1.46875 -1.546875 -3.9218788 -1.546875q-1.65625 0 -2.75 0.625q-1.09375 0.625 -1.953125 1.859375l-0.71875 0q1.203125 -2.46875 2.59375 -3.578125q1.390625 -1.125 3.359375 -1.125q1.4062538 0 2.7343788 0.765625q1.34375 0.765625 2.15625 2.46875q0.828125 1.703125 0.828125 4.609375q0 5.53125 -2.40625 9.9375q-2.703125 4.921875 -6.843754 4.921875q-2.4375 0 -3.875 -1.40625q-1.421875 -1.40625 -1.421875 -3.828125q0 -1.828125 0.71875 -3.578125q0.734375 -1.765625 1.84375 -2.984375q1.109375 -1.21875 2.46875 -1.9375q1.765625 -0.9375 3.59375 -0.9375q1.2812538 0 2.3125038 0.5q1.046875 0.484375 1.71875 1.1875q0.421875 0.4375 0.859375 1.296875zm-0.265625 1.390625q-0.609375 -1.734375 -1.828125 -2.625q-1.203125 -0.890625 -2.6562538 -0.890625q-1.40625 0 -2.765625 0.96875q-1.359375 0.96875 -2.359375 3.40625q-1.0 2.421875 -1.0 4.84375q0 1.78125 0.859375 2.75q0.859375 0.953125 2.1875 0.953125q1.921875 0 3.9218788 -2.03125q2.546875 -2.59375 3.640625 -7.375z" fill-rule="nonzero"></path><path fill="#ff0000" d="m84.19304 178.42604l-15.703125 0l0.21875 -0.578125q1.25 -0.03125 1.671875 -0.203125q0.65625 -0.28125 0.96875 -0.734375q0.484375 -0.71875 1.03125 -2.59375l3.734375 -12.890625q0.46875 -1.59375 0.46875 -2.34375q0 -0.59375 -0.4375 -0.921875q-0.421875 -0.328125 -1.609375 -0.328125q-0.265625 0 -0.421875 -0.015625l0.1875 -0.578125l8.640625 0l-0.125 0.578125q-1.453125 0 -2.0625 0.28125q-0.609375 0.28125 -1.015625 0.921875q-0.28125 0.421875 -0.921875 2.625l-3.671875 12.671875q-0.421875 1.4375 -0.421875 2.0q0 0.375 0.421875 0.71875q0.265625 0.234375 1.203125 0.234375l2.046875 0q2.234375 0 3.546875 -0.5625q0.96875 -0.421875 1.78125 -1.265625q0.4375 -0.46875 1.546875 -2.328125l0.40625 -0.703125l0.578125 0l-2.0625 6.015625z" fill-rule="nonzero"></path><path fill="#ff0000" d="m68.22429 205.22292q0.1875 -1.765625 0.1875 -2.90625q0 -2.8125 -1.484375 -4.34375q-1.46875 -1.546875 -3.9218788 -1.546875q-1.65625 0 -2.75 0.625q-1.09375 0.625 -1.953125 1.859375l-0.71875 0q1.203125 -2.46875 2.59375 -3.578125q1.390625 -1.125 3.359375 -1.125q1.4062538 0 2.7343788 0.765625q1.34375 0.765625 2.15625 2.46875q0.828125 1.703125 0.828125 4.609375q0 5.53125 -2.40625 9.9375q-2.703125 4.921875 -6.843754 4.921875q-2.4375 0 -3.875 -1.40625q-1.421875 -1.40625 -1.421875 -3.828125q0 -1.828125 0.71875 -3.578125q0.734375 -1.765625 1.84375 -2.984375q1.109375 -1.21875 2.46875 -1.9375q1.765625 -0.9375 3.59375 -0.9375q1.2812538 0 2.3125038 0.5q1.046875 0.484375 1.71875 1.1875q0.421875 0.4375 0.859375 1.296875zm-0.265625 1.390625q-0.609375 -1.734375 -1.828125 -2.625q-1.203125 -0.890625 -2.6562538 -0.890625q-1.40625 0 -2.765625 0.96875q-1.359375 0.96875 -2.359375 3.40625q-1.0 2.421875 -1.0 4.84375q0 1.78125 0.859375 2.75q0.859375 0.953125 2.1875 0.953125q1.921875 0 3.9218788 -2.03125q2.546875 -2.59375 3.640625 -7.375z" fill-rule="nonzero"></path><path fill="#ff0000" d="m93.31804 200.53542l0 0.4375q-0.453125 0.03125 -0.765625 0.25q-0.296875 0.203125 -0.53125 0.640625q-0.0625 0.140625 -0.734375 1.8125l-4.984375 13.109375l-0.453125 0l-3.9375 -10.234375l-4.34375 10.234375l-0.421875 0l-5.234375 -12.96875q-0.796875 -1.953125 -1.109375 -2.359375q-0.3125 -0.421875 -1.0625 -0.484375l0 -0.4375l6.890625 0l0 0.4375q-0.84375 0.015625 -1.125 0.25q-0.265625 0.21875 -0.265625 0.5625q0 0.453125 0.578125 1.890625l3.109375 7.703125l2.5 -6.015625l-0.65625 -1.6875q-0.53125 -1.390625 -0.828125 -1.84375q-0.296875 -0.46875 -0.6875 -0.65625q-0.375 -0.203125 -1.109375 -0.203125l0 -0.4375l7.703125 0l0 0.4375q-0.8125 0 -1.15625 0.125q-0.25 0.078125 -0.390625 0.28125q-0.140625 0.1875 -0.140625 0.4375q0 0.265625 0.53125 1.640625l2.890625 7.53125l2.59375 -6.8125q0.40625 -1.046875 0.5 -1.4375q0.09375 -0.390625 0.09375 -0.71875q0 -0.484375 -0.328125 -0.75q-0.328125 -0.28125 -1.25 -0.296875l0 -0.4375l4.125 0z" fill-rule="nonzero"></path><path fill="#000000" fill-opacity="0.0" d="m44.70866 185.70604l66.4252 0" fill-rule="evenodd"></path><path stroke="#ff0000" stroke-width="1.0" stroke-linejoin="round" stroke-linecap="butt" d="m44.70866 185.70604l66.4252 0" fill-rule="evenodd"></path><path fill="#000000" fill-opacity="0.0" d="m52.55512 216.64699l76.91339 0l0 48.72441l-76.91339 0z" fill-rule="evenodd"></path><path fill="#ff0000" d="m65.992615 247.56699q-1.375 -1.75 -2.3281212 -4.078125q-0.953125 -2.34375 -0.953125 -4.84375q0 -2.21875 0.703125 -4.234375q0.8437462 -2.34375 2.5781212 -4.671875l1.203125 0q-1.125 1.921875 -1.484375 2.75q-0.5625 1.28125 -0.890625 2.671875q-0.40625 1.734375 -0.40625 3.484375q0 4.46875 2.78125 8.921875l-1.203125 0zm11.337677 -5.609375l0 1.609375l-8.984375 0q-0.015625 -0.609375 0.1875 -1.15625q0.34375 -0.921875 1.09375 -1.8125q0.765625 -0.890625 2.1875 -2.0625q2.21875 -1.8125 3.0 -2.875q0.78125 -1.0625 0.78125 -2.015625q0 -0.984375 -0.71875 -1.671875q-0.703125 -0.6875 -1.84375 -0.6875q-1.203125 0 -1.9375 0.734375q-0.71875 0.71875 -0.71875 2.0l-1.71875 -0.171875q0.171875 -1.921875 1.328125 -2.921875q1.15625 -1.015625 3.09375 -1.015625q1.953125 0 3.09375 1.09375q1.140625 1.078125 1.140625 2.6875q0 0.8125 -0.34375 1.609375q-0.328125 0.78125 -1.109375 1.65625q-0.765625 0.859375 -2.5625 2.390625q-1.5 1.265625 -1.9375 1.71875q-0.421875 0.4375 -0.703125 0.890625l6.671875 0zm2.5007172 1.609375l0 -1.90625l1.90625 0l0 1.90625q0 1.046875 -0.375 1.6875q-0.375 0.65625 -1.171875 1.0l-0.46875 -0.71875q0.53125 -0.21875 0.78125 -0.671875q0.25 -0.453125 0.28125 -1.296875l-0.953125 0zm9.475983 -3.59375l1.671875 -0.21875q0.28125 1.421875 0.96875 2.046875q0.703125 0.625 1.6875 0.625q1.1875 0 2.0 -0.8125q0.8125 -0.828125 0.8125 -2.03125q0 -1.140625 -0.765625 -1.890625q-0.75 -0.75 -1.90625 -0.75q-0.46875 0 -1.171875 0.1875l0.1875 -1.46875q0.15625 0.015625 0.265625 0.015625q1.0625 0 1.90625 -0.546875q0.859375 -0.5625 0.859375 -1.71875q0 -0.921875 -0.625 -1.515625q-0.609375 -0.609375 -1.59375 -0.609375q-0.96875 0 -1.625 0.609375q-0.640625 0.609375 -0.828125 1.84375l-1.671875 -0.296875q0.296875 -1.6875 1.375 -2.609375q1.09375 -0.921875 2.71875 -0.921875q1.109375 0 2.046875 0.484375q0.9375 0.46875 1.421875 1.296875q0.5 0.828125 0.5 1.75q0 0.890625 -0.46875 1.609375q-0.46875 0.71875 -1.40625 1.15625q1.21875 0.265625 1.875 1.15625q0.671875 0.875 0.671875 2.1875q0 1.78125 -1.296875 3.015625q-1.296875 1.234375 -3.28125 1.234375q-1.796875 0 -2.984375 -1.0625q-1.171875 -1.0625 -1.34375 -2.765625zm11.922592 7.59375l-1.1875 0q2.765625 -4.453125 2.765625 -8.921875q0 -1.734375 -0.390625 -3.453125q-0.328125 -1.390625 -0.890625 -2.671875q-0.359375 -0.84375 -1.484375 -2.78125l1.1875 0q1.75 2.328125 2.578125 4.671875q0.71875 2.015625 0.71875 4.234375q0 2.5 -0.96875 4.84375q-0.953125 2.328125 -2.328125 4.078125z" fill-rule="nonzero"></path><path fill="#000000" fill-opacity="0.0" d="m219.63518 142.07086l58.803146 0l0 87.27559l-58.803146 0z" fill-rule="evenodd"></path><path fill="#ff0000" d="m243.1508 167.22554q0.1875 -1.765625 0.1875 -2.90625q0 -2.8125 -1.484375 -4.34375q-1.46875 -1.546875 -3.921875 -1.546875q-1.65625 0 -2.75 0.625q-1.09375 0.625 -1.953125 1.859375l-0.71875 0q1.203125 -2.46875 2.59375 -3.578125q1.390625 -1.125 3.359375 -1.125q1.40625 0 2.734375 0.765625q1.34375 0.765625 2.15625 2.46875q0.828125 1.703125 0.828125 4.609375q0 5.53125 -2.40625 9.9375q-2.703125 4.921875 -6.84375 4.921875q-2.4375 0 -3.875 -1.40625q-1.421875 -1.40625 -1.421875 -3.828125q0 -1.828125 0.71875 -3.578125q0.734375 -1.765625 1.84375 -2.984375q1.109375 -1.21875 2.46875 -1.9375q1.765625 -0.9375 3.59375 -0.9375q1.28125 0 2.3125 0.5q1.046875 0.484375 1.71875 1.1875q0.421875 0.4375 0.859375 1.296875zm-0.265625 1.390625q-0.609375 -1.734375 -1.828125 -2.625q-1.203125 -0.890625 -2.65625 -0.890625q-1.40625 0 -2.765625 0.96875q-1.359375 0.96875 -2.359375 3.40625q-1.0 2.421875 -1.0 4.84375q0 1.78125 0.859375 2.75q0.859375 0.953125 2.1875 0.953125q1.921875 0 3.921875 -2.03125q2.546875 -2.59375 3.640625 -7.375z" fill-rule="nonzero"></path><path fill="#ff0000" d="m259.11954 178.42867l-15.70311 0l0.21875 -0.578125q1.25 -0.03125 1.671875 -0.203125q0.65625 -0.28125 0.96875 -0.734375q0.484375 -0.71875 1.03125 -2.59375l3.734375 -12.890625q0.46875 -1.59375 0.46875 -2.34375q0 -0.59375 -0.4375 -0.921875q-0.421875 -0.328125 -1.609375 -0.328125q-0.265625 0 -0.421875 -0.015625l0.1875 -0.578125l8.64061 0l-0.125 0.578125q-1.453125 0 -2.0624847 0.28125q-0.609375 0.28125 -1.015625 0.921875q-0.28125 0.421875 -0.921875 2.625l-3.671875 12.671875q-0.421875 1.4375 -0.421875 2.0q0 0.375 0.421875 0.71875q0.265625 0.234375 1.203125 0.234375l2.046875 0q2.234375 0 3.5468597 -0.5625q0.96875 -0.421875 1.78125 -1.265625q0.4375 -0.46875 1.546875 -2.328125l0.40625 -0.703125l0.578125 0l-2.0625 6.015625z" fill-rule="nonzero"></path><path fill="#ff0000" d="m243.1508 205.22554q0.1875 -1.765625 0.1875 -2.90625q0 -2.8125 -1.484375 -4.34375q-1.46875 -1.546875 -3.921875 -1.546875q-1.65625 0 -2.75 0.625q-1.09375 0.625 -1.953125 1.859375l-0.71875 0q1.203125 -2.46875 2.59375 -3.578125q1.390625 -1.125 3.359375 -1.125q1.40625 0 2.734375 0.765625q1.34375 0.765625 2.15625 2.46875q0.828125 1.703125 0.828125 4.609375q0 5.53125 -2.40625 9.9375q-2.703125 4.921875 -6.84375 4.921875q-2.4375 0 -3.875 -1.40625q-1.421875 -1.40625 -1.421875 -3.828125q0 -1.828125 0.71875 -3.578125q0.734375 -1.765625 1.84375 -2.984375q1.109375 -1.21875 2.46875 -1.9375q1.765625 -0.9375 3.59375 -0.9375q1.28125 0 2.3125 0.5q1.046875 0.484375 1.71875 1.1875q0.421875 0.4375 0.859375 1.296875zm-0.265625 1.390625q-0.609375 -1.734375 -1.828125 -2.625q-1.203125 -0.890625 -2.65625 -0.890625q-1.40625 0 -2.765625 0.96875q-1.359375 0.96875 -2.359375 3.40625q-1.0 2.421875 -1.0 4.84375q0 1.78125 0.859375 2.75q0.859375 0.953125 2.1875 0.953125q1.921875 0 3.921875 -2.03125q2.546875 -2.59375 3.640625 -7.375z" fill-rule="nonzero"></path><path fill="#ff0000" d="m267.19766 195.24117l0 0.578125q-1.046875 0.140625 -1.609375 0.609375q-0.78125 0.65625 -2.46875 3.578125l-4.59375 7.671875l0 5.125q0 1.640625 0.171875 2.046875q0.171875 0.390625 0.671875 0.703125q0.515625 0.296875 1.359375 0.296875l1.1875 0l0 0.578125l-11.89061 0l0 -0.578125l1.109375 0q0.9375 0 1.484375 -0.328125q0.40625 -0.21875 0.640625 -0.75q0.171875 -0.375 0.171875 -1.96875l0 -4.25l-4.984375 -9.078125q-1.484375 -2.6875 -2.09375 -3.15625q-0.609375 -0.484375 -1.625 -0.5l0 -0.578125l10.15625 0l0 0.578125l-0.453125 0q-0.921875 0 -1.296875 0.265625q-0.359375 0.265625 -0.359375 0.5625q0 0.5625 1.25 2.828125l3.8281097 7.015625l3.8125 -6.390625q1.421875 -2.34375 1.421875 -3.109375q0 -0.421875 -0.40625 -0.703125q-0.53125 -0.390625 -1.953125 -0.46875l0 -0.578125l6.46875 0z" fill-rule="nonzero"></path><path fill="#000000" fill-opacity="0.0" d="m219.63518 185.70866l58.803146 0" fill-rule="evenodd"></path><path stroke="#ff0000" stroke-width="1.0" stroke-linejoin="round" stroke-linecap="butt" d="m219.63518 185.70866l58.803146 0" fill-rule="evenodd"></path><path fill="#000000" fill-opacity="0.0" d="m133.41208 216.64699l76.913376 0l0 48.72441l-76.913376 0z" fill-rule="evenodd"></path><path fill="#ff0000" d="m146.84958 247.56699q-1.375 -1.75 -2.328125 -4.078125q-0.953125 -2.34375 -0.953125 -4.84375q0 -2.21875 0.703125 -4.234375q0.84375 -2.34375 2.578125 -4.671875l1.203125 0q-1.125 1.921875 -1.484375 2.75q-0.5625 1.28125 -0.890625 2.671875q-0.40625 1.734375 -0.40625 3.484375q0 4.46875 2.78125 8.921875l-1.203125 0zm11.337677 -5.609375l0 1.609375l-8.984375 0q-0.015625 -0.609375 0.1875 -1.15625q0.34375 -0.921875 1.09375 -1.8125q0.765625 -0.890625 2.1875 -2.0625q2.21875 -1.8125 3.0 -2.875q0.78125 -1.0625 0.78125 -2.015625q0 -0.984375 -0.71875 -1.671875q-0.703125 -0.6875 -1.84375 -0.6875q-1.203125 0 -1.9375 0.734375q-0.71875 0.71875 -0.71875 2.0l-1.71875 -0.171875q0.171875 -1.921875 1.328125 -2.921875q1.15625 -1.015625 3.09375 -1.015625q1.953125 0 3.09375 1.09375q1.140625 1.078125 1.140625 2.6875q0 0.8125 -0.34375 1.609375q-0.328125 0.78125 -1.109375 1.65625q-0.765625 0.859375 -2.5625 2.390625q-1.5 1.265625 -1.9375 1.71875q-0.421875 0.4375 -0.703125 0.890625l6.671875 0zm2.5007172 1.609375l0 -1.90625l1.90625 0l0 1.90625q0 1.046875 -0.375 1.6875q-0.375 0.65625 -1.171875 1.0l-0.46875 -0.71875q0.53125 -0.21875 0.78125 -0.671875q0.25 -0.453125 0.28125 -1.296875l-0.953125 0zm15.757233 0l-1.671875 0l0 -10.640625q-0.59375 0.578125 -1.578125 1.15625q-0.984375 0.5625 -1.765625 0.859375l0 -1.625q1.40625 -0.65625 2.453125 -1.59375q1.046875 -0.9375 1.484375 -1.8125l1.078125 0l0 13.65625zm5.641342 4.0l-1.1875 0q2.765625 -4.453125 2.765625 -8.921875q0 -1.734375 -0.390625 -3.453125q-0.328125 -1.390625 -0.890625 -2.671875q-0.359375 -0.84375 -1.484375 -2.78125l1.1875 0q1.75 2.328125 2.578125 4.671875q0.71875 2.015625 0.71875 4.234375q0 2.5 -0.96875 4.84375q-0.953125 2.328125 -2.328125 4.078125z" fill-rule="nonzero"></path><path fill="#000000" fill-opacity="0.0" d="m108.07869 161.34514l172.8189 0l0 48.72441l-172.8189 0z" fill-rule="evenodd"></path><path fill="#ff0000" d="m117.70369 183.30235l17.09375 0l0 2.03125l-17.09375 0l0 -2.03125zm0 5.109375l17.09375 0l0 2.03125l-17.09375 0l0 -2.03125zm39.125 -3.40625l5.84375 8.671875q1.453125 2.15625 2.0625 2.625q0.625 0.453125 1.46875 0.546875l0 0.578125l-10.328125 0l0 -0.578125q1.234375 -0.09375 1.59375 -0.375q0.359375 -0.28125 0.359375 -0.6875q0 -0.28125 -0.109375 -0.5q-0.21875 -0.46875 -1.09375 -1.75l-3.09375 -4.578125l-3.234375 3.953125q-1.453125 1.796875 -1.453125 2.4375q0 0.453125 0.375 0.84375q0.375 0.390625 1.109375 0.5625q0.328125 0.09375 1.34375 0.09375l0 0.578125l-8.140625 0l0 -0.578125q1.390625 -0.203125 2.1875 -0.75q1.046875 -0.71875 2.921875 -3.0l4.203125 -5.125l-5.390625 -7.921875q-1.328125 -1.953125 -1.515625 -2.171875q-0.421875 -0.515625 -0.828125 -0.734375q-0.40625 -0.21875 -1.125 -0.328125l0 -0.578125l10.515625 0l0 0.578125l-0.53125 0q-0.90625 0 -1.265625 0.296875q-0.359375 0.28125 -0.359375 0.71875q0 0.34375 0.109375 0.59375l1.078125 1.625l2.625 4.0l2.234375 -2.734375q1.71875 -2.109375 1.71875 -2.953125q0 -0.421875 -0.25 -0.78125q-0.234375 -0.359375 -0.6875 -0.5625q-0.453125 -0.203125 -1.40625 -0.203125l0 -0.578125l7.796875 0l0 0.578125q-0.921875 0.015625 -1.484375 0.234375q-0.5625 0.203125 -1.203125 0.78125q-0.40625 0.375 -2.03125 2.328125l-4.015625 4.84375z" fill-rule="nonzero"></path><path fill="#ff0000" d="m193.54744 182.67735q1.0625 1.078125 1.0625 2.59375q0 1.515625 -0.9375 2.46875q-1.078125 1.0625 -2.59375 1.0625q-1.515625 0 -2.46875 -0.9375q-1.0625 -1.078125 -1.0625 -2.59375q0 -1.515625 0.9375 -2.46875q1.078125 -1.0625 2.59375 -1.0625q1.515625 0 2.46875 0.9375z" fill-rule="nonzero"></path><path fill="#000000" fill-opacity="0.0" d="m216.02231 215.98221l76.91339 0l0 48.724426l-76.91339 0z" fill-rule="evenodd"></path><path fill="#ff0000" d="m229.45981 246.9022q-1.375 -1.75 -2.328125 -4.078125q-0.953125 -2.34375 -0.953125 -4.84375q0 -2.21875 0.703125 -4.234375q0.84375 -2.34375 2.578125 -4.671875l1.203125 0q-1.125 1.921875 -1.484375 2.75q-0.5625 1.28125 -0.890625 2.671875q-0.40625 1.734375 -0.40625 3.484375q0 4.46875 2.78125 8.921875l-1.203125 0zm8.853302 -4.0l-1.671875 0l0 -10.640625q-0.59375 0.578125 -1.578125 1.15625q-0.984375 0.5625 -1.765625 0.859375l0 -1.625q1.40625 -0.65625 2.453125 -1.59375q1.046875 -0.9375 1.484375 -1.8125l1.078125 0l0 13.65625zm4.985092 0l0 -1.90625l1.90625 0l0 1.90625q0 1.046875 -0.375 1.6875q-0.375 0.65625 -1.171875 1.0l-0.46875 -0.71875q0.53125 -0.21875 0.78125 -0.671875q0.25 -0.453125 0.28125 -1.296875l-0.953125 0zm9.475983 -3.59375l1.671875 -0.21875q0.28125 1.421875 0.96875 2.046875q0.70314026 0.625 1.6875153 0.625q1.1875 0 2.0 -0.8125q0.8125 -0.828125 0.8125 -2.03125q0 -1.140625 -0.765625 -1.890625q-0.75 -0.75 -1.90625 -0.75q-0.46875 0 -1.171875 0.1875l0.1875 -1.46875q0.15625 0.015625 0.265625 0.015625q1.0625 0 1.90625 -0.546875q0.859375 -0.5625 0.859375 -1.71875q0 -0.921875 -0.625 -1.515625q-0.609375 -0.609375 -1.59375 -0.609375q-0.96875 0 -1.6250153 0.609375q-0.640625 0.609375 -0.828125 1.84375l-1.671875 -0.296875q0.296875 -1.6875 1.375 -2.609375q1.09375 -0.921875 2.7187653 -0.921875q1.109375 0 2.046875 0.484375q0.9375 0.46875 1.421875 1.296875q0.5 0.828125 0.5 1.75q0 0.890625 -0.46875 1.609375q-0.46875 0.71875 -1.40625 1.15625q1.21875 0.265625 1.875 1.15625q0.671875 0.875 0.671875 2.1875q0 1.78125 -1.296875 3.015625q-1.296875 1.234375 -3.28125 1.234375q-1.7968903 0 -2.9843903 -1.0625q-1.171875 -1.0625 -1.34375 -2.765625zm11.922592 7.59375l-1.1875 0q2.765625 -4.453125 2.765625 -8.921875q0 -1.734375 -0.390625 -3.453125q-0.328125 -1.390625 -0.890625 -2.671875q-0.359375 -0.84375 -1.484375 -2.78125l1.1875 0q1.75 2.328125 2.578125 4.671875q0.71875 2.015625 0.71875 4.234375q0 2.5 -0.96875 4.84375q-0.953125 2.328125 -2.328125 4.078125z" fill-rule="nonzero"></path><path fill="#000000" fill-opacity="0.0" d="m159.32283 147.49475l76.91339 0l0 48.72441l-76.91339 0z" fill-rule="evenodd"></path><path fill="#ff0000" d="m179.32283 161.83662l0.140625 2.953125l-0.359375 0q-0.109375 -0.78125 -0.28125 -1.125q-0.28125 -0.53125 -0.765625 -0.78125q-0.46875 -0.265625 -1.25 -0.265625l-1.78125 0l0 9.609375q0 1.171875 0.25 1.453125q0.359375 0.390625 1.09375 0.390625l0.4375 0l0 0.34375l-5.34375 0l0 -0.34375l0.453125 0q0.796875 0 1.125 -0.484375q0.203125 -0.296875 0.203125 -1.359375l0 -9.609375l-1.5 0q-0.890625 0 -1.265625 0.140625q-0.484375 0.171875 -0.828125 0.671875q-0.328125 0.5 -0.40625 1.359375l-0.34375 0l0.140625 -2.953125l10.28125 0z" fill-rule="nonzero"></path></g></svg>

